<svg width="192" height="32" viewBox="0 0 192 32" fill="none" xmlns="http://www.w3.org/2000/svg">
<path d="M14.6486 6.42258C14.6486 6.78224 14.3672 7.0734 14.0196 7.0734H8.77254C8.42494 7.0734 8.14355 6.78224 8.14355 6.42258V0.993351C8.14355 0.633687 8.42494 0.342529 8.77254 0.342529H14.0196C14.3672 0.342529 14.6486 0.633687 14.6486 0.993351V6.42258Z" fill="#32A041"/>
<path d="M22.4777 6.42258C22.4777 6.78224 22.1963 7.0734 21.8487 7.0734H16.6016C16.254 7.0734 15.9727 6.78224 15.9727 6.42258V0.993351C15.9727 0.633687 16.254 0.342529 16.6016 0.342529H21.8487C22.1963 0.342529 22.4777 0.633687 22.4777 0.993351V6.42258Z" fill="#32A041"/>
<path d="M22.4777 22.6075C22.4777 22.9672 22.1963 23.2583 21.8487 23.2583H16.6016C16.254 23.2583 15.9727 22.9672 15.9727 22.6075V17.1783C15.9727 16.8186 16.254 16.5275 16.6016 16.5275H21.8487C22.1963 16.5275 22.4777 16.8186 22.4777 17.1783V22.6075Z" fill="#32A041"/>
<path d="M6.83612 14.5064C6.83612 14.8661 6.55473 15.1573 6.20713 15.1573H0.960043C0.612444 15.1573 0.331055 14.8661 0.331055 14.5064V9.07721C0.331055 8.71755 0.612444 8.42639 0.960043 8.42639H6.20713C6.55473 8.42639 6.83612 8.71755 6.83612 9.07721V14.5064Z" fill="#32A041"/>
<path d="M14.6486 14.5064C14.6486 14.8661 14.3672 15.1573 14.0196 15.1573H8.77254C8.42494 15.1573 8.14355 14.8661 8.14355 14.5064V9.07721C8.14355 8.71755 8.42494 8.42639 8.77254 8.42639H14.0196C14.3672 8.42639 14.6486 8.71755 14.6486 9.07721V14.5064Z" fill="#32A041"/>
<path d="M6.83612 22.6075C6.83612 22.9672 6.55473 23.2583 6.20713 23.2583H0.960043C0.612444 23.2583 0.331055 22.9672 0.331055 22.6075V17.1783C0.331055 16.8186 0.612444 16.5275 0.960043 16.5275H6.20713C6.55473 16.5275 6.83612 16.8186 6.83612 17.1783V22.6075Z" fill="#32A041"/>
<path d="M14.6486 22.6075C14.6486 22.9672 14.3672 23.2583 14.0196 23.2583H8.77254C8.42494 23.2583 8.14355 22.9672 8.14355 22.6075V17.1783C8.14355 16.8186 8.42494 16.5275 8.77254 16.5275H14.0196C14.3672 16.5275 14.6486 16.8186 14.6486 17.1783V22.6075Z" fill="#32A041"/>
<path d="M6.83612 30.7083C6.83612 31.068 6.55473 31.3592 6.20713 31.3592H0.960043C0.612444 31.3592 0.331055 31.068 0.331055 30.7083V25.2791C0.331055 24.9195 0.612444 24.6283 0.960043 24.6283H6.20713C6.55473 24.6283 6.83612 24.9195 6.83612 25.2791V30.7083Z" fill="#32A041"/>
<path d="M14.6486 30.7083C14.6486 31.068 14.3672 31.3592 14.0196 31.3592H8.77254C8.42494 31.3592 8.14355 31.068 8.14355 30.7083V25.2791C8.14355 24.9195 8.42494 24.6283 8.77254 24.6283H14.0196C14.3672 24.6283 14.6486 24.9195 14.6486 25.2791V30.7083Z" fill="#32A041"/>
<path d="M7.16715 3.71654C7.16715 5.77176 5.56158 7.43307 3.5753 7.43307C1.58902 7.43307 0 5.77176 0 3.71654C0 1.66131 1.60557 0 3.5753 0C5.56158 0 7.16715 1.66131 7.16715 3.71654Z" fill="#C8191E"/>
<path d="M38.0527 10.3772H36.2627V13.9382H34.6567V4.69604H37.9067C38.9731 4.69604 39.7962 4.93514 40.376 5.41333C40.9557 5.89152 41.2456 6.58341 41.2456 7.48901C41.2456 8.10685 41.0954 8.62524 40.7949 9.04419C40.4987 9.4589 40.084 9.7784 39.5508 10.0027L41.6265 13.8557V13.9382H39.9062L38.0527 10.3772ZM36.2627 9.08862H37.9131C38.4548 9.08862 38.8779 8.95321 39.1826 8.68237C39.4873 8.40731 39.6396 8.0328 39.6396 7.55884C39.6396 7.06372 39.4979 6.68075 39.2144 6.40991C38.9351 6.13908 38.5161 5.99943 37.9575 5.99097H36.2627V9.08862ZM45.7745 14.0652C44.797 14.0652 44.0035 13.7584 43.3942 13.1448C42.789 12.5269 42.4864 11.706 42.4864 10.6819V10.4915C42.4864 9.80591 42.6176 9.19442 42.88 8.65698C43.1466 8.11532 43.519 7.69425 43.9972 7.3938C44.4754 7.09334 45.0086 6.94312 45.5968 6.94312C46.532 6.94312 47.2535 7.24146 47.7613 7.83813C48.2734 8.43481 48.5294 9.27905 48.5294 10.3708V10.9929H44.0416C44.0882 11.56 44.2765 12.0085 44.6066 12.3386C44.9409 12.6687 45.3598 12.8337 45.8634 12.8337C46.5701 12.8337 47.1456 12.5481 47.59 11.9768L48.4215 12.7703C48.1464 13.1807 47.7783 13.5002 47.317 13.7288C46.86 13.953 46.3458 14.0652 45.7745 14.0652ZM45.5904 8.18091C45.1673 8.18091 44.8245 8.32902 44.5621 8.62524C44.304 8.92147 44.139 9.33407 44.067 9.86304H47.006V9.74878C46.9721 9.2325 46.8346 8.84318 46.5934 8.58081C46.3522 8.31421 46.0179 8.18091 45.5904 8.18091ZM53.9661 13.9382C53.8983 13.807 53.8391 13.5933 53.7883 13.2971C53.2974 13.8092 52.6965 14.0652 51.9856 14.0652C51.2958 14.0652 50.733 13.8684 50.2971 13.4749C49.8612 13.0813 49.6433 12.5946 49.6433 12.0149C49.6433 11.2828 49.9141 10.7221 50.4558 10.3328C51.0017 9.93921 51.7803 9.74243 52.7917 9.74243H53.7375V9.29175C53.7375 8.93628 53.6381 8.65275 53.4392 8.44116C53.2403 8.22534 52.9377 8.11743 52.5315 8.11743C52.1802 8.11743 51.8925 8.2063 51.6682 8.38403C51.4439 8.55754 51.3318 8.7797 51.3318 9.05054H49.7893C49.7893 8.67391 49.9141 8.32267 50.1638 7.99683C50.4135 7.66675 50.752 7.40861 51.1794 7.22241C51.6111 7.03621 52.0914 6.94312 52.6204 6.94312C53.4244 6.94312 54.0655 7.14624 54.5437 7.55249C55.0219 7.95451 55.2673 8.52157 55.28 9.25366V12.3513C55.28 12.9692 55.3668 13.4622 55.5403 13.8303V13.9382H53.9661ZM52.2712 12.8274C52.5759 12.8274 52.8616 12.7533 53.1282 12.6052C53.399 12.4571 53.6021 12.2582 53.7375 12.0085V10.7136H52.906C52.3347 10.7136 51.9052 10.8131 51.6174 11.012C51.3297 11.2109 51.1858 11.4923 51.1858 11.8562C51.1858 12.1524 51.2831 12.3894 51.4778 12.5671C51.6767 12.7406 51.9412 12.8274 52.2712 12.8274ZM58.6664 13.9382H57.1239V4.18823H58.6664V13.9382ZM62.4145 5.40063V7.07007H63.6269V8.21265H62.4145V12.0466C62.4145 12.309 62.4653 12.4994 62.5669 12.6179C62.6727 12.7322 62.8589 12.7893 63.1255 12.7893C63.3032 12.7893 63.4831 12.7681 63.665 12.7258V13.9192C63.3138 14.0165 62.9752 14.0652 62.6494 14.0652C61.4645 14.0652 60.8721 13.4114 60.8721 12.1038V8.21265H59.7422V7.07007H60.8721V5.40063H62.4145ZM66.5816 13.9382H65.0392V7.07007H66.5816V13.9382ZM64.9439 5.28638C64.9439 5.0494 65.018 4.85262 65.1661 4.69604C65.3185 4.53947 65.5343 4.46118 65.8136 4.46118C66.0929 4.46118 66.3087 4.53947 66.461 4.69604C66.6134 4.85262 66.6896 5.0494 66.6896 5.28638C66.6896 5.51912 66.6134 5.71379 66.461 5.87036C66.3087 6.02271 66.0929 6.09888 65.8136 6.09888C65.5343 6.09888 65.3185 6.02271 65.1661 5.87036C65.018 5.71379 64.9439 5.51912 64.9439 5.28638ZM69.8474 7.07007L69.8918 7.78735C70.3742 7.22453 71.0344 6.94312 71.8723 6.94312C72.7906 6.94312 73.419 7.29435 73.7575 7.99683C74.2569 7.29435 74.9594 6.94312 75.865 6.94312C76.6224 6.94312 77.1853 7.15259 77.5534 7.57153C77.9258 7.99048 78.1163 8.60832 78.1247 9.42505V13.9382H76.5822V9.46948C76.5822 9.03361 76.487 8.71411 76.2966 8.51099C76.1062 8.30786 75.7909 8.2063 75.3508 8.2063C74.9996 8.2063 74.7118 8.30151 74.4875 8.49194C74.2675 8.67814 74.113 8.92358 74.0241 9.22827L74.0305 13.9382H72.488V9.4187C72.4668 8.61043 72.0543 8.2063 71.2502 8.2063C70.6324 8.2063 70.1944 8.45809 69.9362 8.96167V13.9382H68.3938V7.07007H69.8474ZM82.8631 14.0652C81.8856 14.0652 81.0921 13.7584 80.4828 13.1448C79.8776 12.5269 79.575 11.706 79.575 10.6819V10.4915C79.575 9.80591 79.7062 9.19442 79.9686 8.65698C80.2352 8.11532 80.6076 7.69425 81.0858 7.3938C81.564 7.09334 82.0972 6.94312 82.6854 6.94312C83.6206 6.94312 84.3421 7.24146 84.8499 7.83813C85.362 8.43481 85.618 9.27905 85.618 10.3708V10.9929H81.1302C81.1768 11.56 81.3651 12.0085 81.6952 12.3386C82.0295 12.6687 82.4484 12.8337 82.952 12.8337C83.6587 12.8337 84.2342 12.5481 84.6786 11.9768L85.5101 12.7703C85.235 13.1807 84.8669 13.5002 84.4056 13.7288C83.9486 13.953 83.4344 14.0652 82.8631 14.0652ZM82.679 8.18091C82.2559 8.18091 81.9131 8.32902 81.6507 8.62524C81.3926 8.92147 81.2275 9.33407 81.1556 9.86304H84.0946V9.74878C84.0607 9.2325 83.9232 8.84318 83.682 8.58081C83.4408 8.31421 83.1065 8.18091 82.679 8.18091ZM95.2979 11.5579C95.2979 11.1516 95.154 10.8385 94.8663 10.6184C94.5828 10.3984 94.0686 10.1762 93.3238 9.9519C92.579 9.72762 91.9866 9.47795 91.5465 9.20288C90.7043 8.67391 90.2833 7.98413 90.2833 7.13354C90.2833 6.38875 90.5859 5.77515 91.191 5.29272C91.8004 4.8103 92.5896 4.56909 93.5587 4.56909C94.2019 4.56909 94.7753 4.68758 95.2789 4.92456C95.7825 5.16154 96.1781 5.50008 96.4659 5.94019C96.7537 6.37606 96.8975 6.8606 96.8975 7.3938H95.2979C95.2979 6.91138 95.1456 6.53475 94.8409 6.26392C94.5404 5.98885 94.1088 5.85132 93.546 5.85132C93.0212 5.85132 92.6129 5.96346 92.3209 6.18774C92.0331 6.41203 91.8892 6.72518 91.8892 7.1272C91.8892 7.46574 92.0458 7.74927 92.359 7.97778C92.6721 8.20207 93.1884 8.42212 93.9078 8.63794C94.6272 8.84953 95.2048 9.09285 95.6407 9.36792C96.0766 9.63875 96.3961 9.9519 96.5992 10.3074C96.8023 10.6586 96.9039 11.0712 96.9039 11.5452C96.9039 12.3153 96.6077 12.929 96.0152 13.386C95.427 13.8388 94.6272 14.0652 93.6158 14.0652C92.9472 14.0652 92.3315 13.9425 91.7686 13.697C91.21 13.4473 90.7742 13.1046 90.461 12.6687C90.1521 12.2328 89.9976 11.725 89.9976 11.1453H91.6036C91.6036 11.67 91.7771 12.0763 92.1241 12.364C92.4711 12.6518 92.9683 12.7957 93.6158 12.7957C94.1744 12.7957 94.5933 12.6835 94.8726 12.4592C95.1562 12.2307 95.2979 11.9303 95.2979 11.5579ZM100.227 5.40063V7.07007H101.439V8.21265H100.227V12.0466C100.227 12.309 100.278 12.4994 100.379 12.6179C100.485 12.7322 100.671 12.7893 100.938 12.7893C101.115 12.7893 101.295 12.7681 101.477 12.7258V13.9192C101.126 14.0165 100.787 14.0652 100.462 14.0652C99.2767 14.0652 98.6843 13.4114 98.6843 12.1038V8.21265H97.5544V7.07007H98.6843V5.40063H100.227ZM106.349 8.47925C106.146 8.44539 105.936 8.42847 105.721 8.42847C105.014 8.42847 104.538 8.6993 104.292 9.24097V13.9382H102.75V7.07007H104.222L104.261 7.83813C104.633 7.24146 105.149 6.94312 105.809 6.94312C106.029 6.94312 106.211 6.97274 106.355 7.03198L106.349 8.47925ZM111.614 13.2654C111.161 13.7986 110.518 14.0652 109.685 14.0652C108.94 14.0652 108.375 13.8472 107.99 13.4114C107.609 12.9755 107.418 12.345 107.418 11.5198V7.07007H108.961V11.5007C108.961 12.3725 109.323 12.8083 110.046 12.8083C110.795 12.8083 111.301 12.5396 111.563 12.0022V7.07007H113.106V13.9382H111.652L111.614 13.2654ZM117.628 12.8337C118.014 12.8337 118.333 12.7216 118.587 12.4973C118.841 12.273 118.976 11.9958 118.993 11.6658H120.447C120.43 12.0932 120.297 12.4931 120.047 12.8655C119.797 13.2336 119.459 13.5256 119.031 13.7415C118.604 13.9573 118.143 14.0652 117.648 14.0652C116.687 14.0652 115.925 13.7542 115.362 13.1321C114.8 12.51 114.518 11.651 114.518 10.5549V10.3962C114.518 9.35099 114.797 8.51522 115.356 7.88892C115.915 7.25838 116.676 6.94312 117.641 6.94312C118.458 6.94312 119.122 7.18221 119.634 7.6604C120.151 8.13436 120.421 8.75854 120.447 9.53296H118.993C118.976 9.1394 118.841 8.81567 118.587 8.56177C118.337 8.30786 118.018 8.18091 117.628 8.18091C117.129 8.18091 116.744 8.36287 116.473 8.72681C116.202 9.08651 116.065 9.63452 116.061 10.3708V10.6184C116.061 11.3632 116.194 11.9197 116.461 12.2878C116.731 12.6518 117.121 12.8337 117.628 12.8337ZM123.674 5.40063V7.07007H124.887V8.21265H123.674V12.0466C123.674 12.309 123.725 12.4994 123.827 12.6179C123.933 12.7322 124.119 12.7893 124.385 12.7893C124.563 12.7893 124.743 12.7681 124.925 12.7258V13.9192C124.574 14.0165 124.235 14.0652 123.909 14.0652C122.724 14.0652 122.132 13.4114 122.132 12.1038V8.21265H121.002V7.07007H122.132V5.40063H123.674ZM130.362 13.2654C129.909 13.7986 129.266 14.0652 128.432 14.0652C127.687 14.0652 127.122 13.8472 126.737 13.4114C126.356 12.9755 126.166 12.345 126.166 11.5198V7.07007H127.708V11.5007C127.708 12.3725 128.07 12.8083 128.794 12.8083C129.543 12.8083 130.048 12.5396 130.311 12.0022V7.07007H131.853V13.9382H130.4L130.362 13.2654ZM137.15 8.47925C136.947 8.44539 136.738 8.42847 136.522 8.42847C135.815 8.42847 135.339 8.6993 135.094 9.24097V13.9382H133.551V7.07007H135.024L135.062 7.83813C135.434 7.24146 135.951 6.94312 136.611 6.94312C136.831 6.94312 137.013 6.97274 137.157 7.03198L137.15 8.47925ZM142.168 13.9382C142.1 13.807 142.041 13.5933 141.99 13.2971C141.499 13.8092 140.898 14.0652 140.188 14.0652C139.498 14.0652 138.935 13.8684 138.499 13.4749C138.063 13.0813 137.845 12.5946 137.845 12.0149C137.845 11.2828 138.116 10.7221 138.658 10.3328C139.204 9.93921 139.982 9.74243 140.994 9.74243H141.939V9.29175C141.939 8.93628 141.84 8.65275 141.641 8.44116C141.442 8.22534 141.14 8.11743 140.733 8.11743C140.382 8.11743 140.094 8.2063 139.87 8.38403C139.646 8.55754 139.534 8.7797 139.534 9.05054H137.991C137.991 8.67391 138.116 8.32267 138.366 7.99683C138.615 7.66675 138.954 7.40861 139.381 7.22241C139.813 7.03621 140.293 6.94312 140.822 6.94312C141.626 6.94312 142.267 7.14624 142.746 7.55249C143.224 7.95451 143.469 8.52157 143.482 9.25366V12.3513C143.482 12.9692 143.569 13.4622 143.742 13.8303V13.9382H142.168ZM140.473 12.8274C140.778 12.8274 141.064 12.7533 141.33 12.6052C141.601 12.4571 141.804 12.2582 141.939 12.0085V10.7136H141.108C140.537 10.7136 140.107 10.8131 139.819 11.012C139.532 11.2109 139.388 11.4923 139.388 11.8562C139.388 12.1524 139.485 12.3894 139.68 12.5671C139.879 12.7406 140.143 12.8274 140.473 12.8274ZM146.868 13.9382H145.326V4.18823H146.868V13.9382ZM159.538 13.9382H157.938V9.8313H153.806V13.9382H152.2V4.69604H153.806V8.54272H157.938V4.69604H159.538V13.9382ZM164.448 14.0652C163.47 14.0652 162.677 13.7584 162.067 13.1448C161.462 12.5269 161.16 11.706 161.16 10.6819V10.4915C161.16 9.80591 161.291 9.19442 161.553 8.65698C161.82 8.11532 162.192 7.69425 162.67 7.3938C163.149 7.09334 163.682 6.94312 164.27 6.94312C165.205 6.94312 165.927 7.24146 166.435 7.83813C166.947 8.43481 167.203 9.27905 167.203 10.3708V10.9929H162.715C162.761 11.56 162.95 12.0085 163.28 12.3386C163.614 12.6687 164.033 12.8337 164.537 12.8337C165.243 12.8337 165.819 12.5481 166.263 11.9768L167.095 12.7703C166.82 13.1807 166.452 13.5002 165.99 13.7288C165.533 13.953 165.019 14.0652 164.448 14.0652ZM164.264 8.18091C163.841 8.18091 163.498 8.32902 163.235 8.62524C162.977 8.92147 162.812 9.33407 162.74 9.86304H165.679V9.74878C165.645 9.2325 165.508 8.84318 165.267 8.58081C165.025 8.31421 164.691 8.18091 164.264 8.18091ZM172.639 13.9382C172.572 13.807 172.512 13.5933 172.462 13.2971C171.971 13.8092 171.37 14.0652 170.659 14.0652C169.969 14.0652 169.406 13.8684 168.97 13.4749C168.534 13.0813 168.317 12.5946 168.317 12.0149C168.317 11.2828 168.587 10.7221 169.129 10.3328C169.675 9.93921 170.454 9.74243 171.465 9.74243H172.411V9.29175C172.411 8.93628 172.311 8.65275 172.112 8.44116C171.914 8.22534 171.611 8.11743 171.205 8.11743C170.853 8.11743 170.566 8.2063 170.341 8.38403C170.117 8.55754 170.005 8.7797 170.005 9.05054H168.463C168.463 8.67391 168.587 8.32267 168.837 7.99683C169.087 7.66675 169.425 7.40861 169.853 7.22241C170.284 7.03621 170.765 6.94312 171.294 6.94312C172.098 6.94312 172.739 7.14624 173.217 7.55249C173.695 7.95451 173.941 8.52157 173.953 9.25366V12.3513C173.953 12.9692 174.04 13.4622 174.214 13.8303V13.9382H172.639ZM170.944 12.8274C171.249 12.8274 171.535 12.7533 171.801 12.6052C172.072 12.4571 172.275 12.2582 172.411 12.0085V10.7136H171.579C171.008 10.7136 170.578 10.8131 170.291 11.012C170.003 11.2109 169.859 11.4923 169.859 11.8562C169.859 12.1524 169.956 12.3894 170.151 12.5671C170.35 12.7406 170.614 12.8274 170.944 12.8274ZM177.34 13.9382H175.797V4.18823H177.34V13.9382ZM181.088 5.40063V7.07007H182.3V8.21265H181.088V12.0466C181.088 12.309 181.139 12.4994 181.24 12.6179C181.346 12.7322 181.532 12.7893 181.799 12.7893C181.976 12.7893 182.156 12.7681 182.338 12.7258V13.9192C181.987 14.0165 181.648 14.0652 181.323 14.0652C180.138 14.0652 179.545 13.4114 179.545 12.1038V8.21265H178.415V7.07007H179.545V5.40063H181.088ZM185.134 7.81909C185.638 7.23511 186.275 6.94312 187.045 6.94312C188.509 6.94312 189.252 7.77889 189.273 9.45044V13.9382H187.73V9.50757C187.73 9.03361 187.627 8.6993 187.419 8.50464C187.216 8.30575 186.916 8.2063 186.518 8.2063C185.9 8.2063 185.439 8.48136 185.134 9.03149V13.9382H183.592V4.18823H185.134V7.81909ZM36.7388 19.696L39.4048 26.78L42.0645 19.696H44.1401V28.9382H42.5405V25.8914L42.6992 21.8162L39.9697 28.9382H38.8208L36.0977 21.8225L36.2563 25.8914V28.9382H34.6567V19.696H36.7388ZM45.7364 25.4407C45.7364 24.7678 45.8697 24.1627 46.1363 23.6252C46.4029 23.0836 46.7775 22.6689 47.2599 22.3811C47.7423 22.0891 48.2967 21.9431 48.923 21.9431C49.8497 21.9431 50.6009 22.2415 51.1764 22.8381C51.7561 23.4348 52.0693 24.2262 52.1158 25.2122L52.1222 25.574C52.1222 26.2511 51.991 26.8562 51.7286 27.3894C51.4705 27.9226 51.0981 28.3352 50.6114 28.6272C50.129 28.9192 49.5704 29.0652 48.9357 29.0652C47.9666 29.0652 47.1901 28.7436 46.6061 28.1003C46.0263 27.4529 45.7364 26.5917 45.7364 25.5168V25.4407ZM47.2789 25.574C47.2789 26.2807 47.4249 26.835 47.7169 27.2371C48.0089 27.6348 48.4152 27.8337 48.9357 27.8337C49.4562 27.8337 49.8603 27.6306 50.1481 27.2244C50.4401 26.8181 50.5861 26.2236 50.5861 25.4407C50.5861 24.7467 50.4358 24.1965 50.1354 23.7903C49.8391 23.384 49.435 23.1809 48.923 23.1809C48.4194 23.1809 48.0195 23.3819 47.7233 23.7839C47.427 24.1817 47.2789 24.7784 47.2789 25.574ZM54.988 22.0701L55.0325 22.8635C55.5403 22.2499 56.2068 21.9431 57.032 21.9431C58.4623 21.9431 59.1902 22.762 59.2156 24.3997V28.9382H57.6731V24.4885C57.6731 24.0527 57.5779 23.731 57.3874 23.5237C57.2012 23.3121 56.8944 23.2063 56.467 23.2063C55.845 23.2063 55.3816 23.4877 55.0769 24.0505V28.9382H53.5344V22.0701H54.988ZM62.5638 28.9382H61.0213V22.0701H62.5638V28.9382ZM60.9261 20.2864C60.9261 20.0494 61.0002 19.8526 61.1483 19.696C61.3006 19.5395 61.5165 19.4612 61.7958 19.4612C62.0751 19.4612 62.2909 19.5395 62.4432 19.696C62.5956 19.8526 62.6717 20.0494 62.6717 20.2864C62.6717 20.5191 62.5956 20.7138 62.4432 20.8704C62.2909 21.0227 62.0751 21.0989 61.7958 21.0989C61.5165 21.0989 61.3006 21.0227 61.1483 20.8704C61.0002 20.7138 60.9261 20.5191 60.9261 20.2864ZM66.312 20.4006V22.0701H67.5244V23.2126H66.312V27.0466C66.312 27.309 66.3628 27.4994 66.4643 27.6179C66.5701 27.7322 66.7563 27.7893 67.0229 27.7893C67.2007 27.7893 67.3805 27.7681 67.5625 27.7258V28.9192C67.2112 29.0165 66.8727 29.0652 66.5469 29.0652C65.362 29.0652 64.7695 28.4114 64.7695 27.1038V23.2126H63.6396V22.0701H64.7695V20.4006H66.312ZM68.359 25.4407C68.359 24.7678 68.4923 24.1627 68.7589 23.6252C69.0255 23.0836 69.4 22.6689 69.8824 22.3811C70.3648 22.0891 70.9192 21.9431 71.5455 21.9431C72.4723 21.9431 73.2234 22.2415 73.7989 22.8381C74.3787 23.4348 74.6918 24.2262 74.7384 25.2122L74.7447 25.574C74.7447 26.2511 74.6135 26.8562 74.3512 27.3894C74.093 27.9226 73.7206 28.3352 73.234 28.6272C72.7516 28.9192 72.193 29.0652 71.5582 29.0652C70.5891 29.0652 69.8126 28.7436 69.2286 28.1003C68.6489 27.4529 68.359 26.5917 68.359 25.5168V25.4407ZM69.9015 25.574C69.9015 26.2807 70.0475 26.835 70.3395 27.2371C70.6314 27.6348 71.0377 27.8337 71.5582 27.8337C72.0787 27.8337 72.4828 27.6306 72.7706 27.2244C73.0626 26.8181 73.2086 26.2236 73.2086 25.4407C73.2086 24.7467 73.0584 24.1965 72.7579 23.7903C72.4617 23.384 72.0576 23.1809 71.5455 23.1809C71.0419 23.1809 70.642 23.3819 70.3458 23.7839C70.0496 24.1817 69.9015 24.7784 69.9015 25.574ZM79.7751 23.4792C79.572 23.4454 79.3625 23.4285 79.1467 23.4285C78.44 23.4285 77.9639 23.6993 77.7185 24.241V28.9382H76.176V22.0701H77.6487L77.6867 22.8381C78.0591 22.2415 78.5754 21.9431 79.2356 21.9431C79.4556 21.9431 79.6376 21.9727 79.7815 22.032L79.7751 23.4792ZM82.5204 28.9382H80.9779V22.0701H82.5204V28.9382ZM80.8827 20.2864C80.8827 20.0494 80.9567 19.8526 81.1048 19.696C81.2572 19.5395 81.473 19.4612 81.7523 19.4612C82.0316 19.4612 82.2474 19.5395 82.3997 19.696C82.5521 19.8526 82.6283 20.0494 82.6283 20.2864C82.6283 20.5191 82.5521 20.7138 82.3997 20.8704C82.2474 21.0227 82.0316 21.0989 81.7523 21.0989C81.473 21.0989 81.2572 21.0227 81.1048 20.8704C80.9567 20.7138 80.8827 20.5191 80.8827 20.2864ZM85.7671 22.0701L85.8115 22.8635C86.3193 22.2499 86.9858 21.9431 87.811 21.9431C89.2413 21.9431 89.9692 22.762 89.9946 24.3997V28.9382H88.4521V24.4885C88.4521 24.0527 88.3569 23.731 88.1665 23.5237C87.9803 23.3121 87.6735 23.2063 87.2461 23.2063C86.624 23.2063 86.1606 23.4877 85.8559 24.0505V28.9382H84.3134V22.0701H85.7671ZM91.4322 25.4534C91.4322 24.387 91.6819 23.5364 92.1812 22.9016C92.6848 22.2626 93.3513 21.9431 94.1807 21.9431C94.9636 21.9431 95.5793 22.2161 96.0279 22.762L96.0977 22.0701H97.4879V28.7288C97.4879 29.6301 97.2065 30.3411 96.6436 30.8616C96.085 31.3821 95.3297 31.6423 94.3775 31.6423C93.8739 31.6423 93.3809 31.5365 92.8985 31.325C92.4203 31.1176 92.0564 30.8446 91.8067 30.5061L92.5367 29.5793C93.0107 30.1422 93.5946 30.4236 94.2887 30.4236C94.8007 30.4236 95.2048 30.2839 95.5011 30.0046C95.7973 29.7296 95.9454 29.3233 95.9454 28.7859V28.3225C95.5011 28.8176 94.9086 29.0652 94.168 29.0652C93.364 29.0652 92.706 28.7457 92.1939 28.1067C91.6861 27.4677 91.4322 26.5833 91.4322 25.4534ZM92.9683 25.5867C92.9683 26.2764 93.108 26.8202 93.3873 27.218C93.6708 27.6116 94.0623 27.8083 94.5616 27.8083C95.1837 27.8083 95.6449 27.5417 95.9454 27.0085V23.9871C95.6534 23.4666 95.1964 23.2063 94.5743 23.2063C94.0665 23.2063 93.6708 23.4073 93.3873 23.8093C93.108 24.2113 92.9683 24.8038 92.9683 25.5867ZM107.555 26.5579C107.555 26.1516 107.411 25.8385 107.123 25.6184C106.84 25.3984 106.326 25.1762 105.581 24.9519C104.836 24.7276 104.244 24.4779 103.804 24.2029C102.961 23.6739 102.54 22.9841 102.54 22.1335C102.54 21.3888 102.843 20.7751 103.448 20.2927C104.057 19.8103 104.847 19.5691 105.816 19.5691C106.459 19.5691 107.032 19.6876 107.536 19.9246C108.04 20.1615 108.435 20.5001 108.723 20.9402C109.011 21.3761 109.155 21.8606 109.155 22.3938H107.555C107.555 21.9114 107.403 21.5347 107.098 21.2639C106.798 20.9889 106.366 20.8513 105.803 20.8513C105.278 20.8513 104.87 20.9635 104.578 21.1877C104.29 21.412 104.146 21.7252 104.146 22.1272C104.146 22.4657 104.303 22.7493 104.616 22.9778C104.929 23.2021 105.445 23.4221 106.165 23.6379C106.884 23.8495 107.462 24.0929 107.898 24.3679C108.334 24.6388 108.653 24.9519 108.856 25.3074C109.059 25.6586 109.161 26.0712 109.161 26.5452C109.161 27.3153 108.865 27.929 108.272 28.386C107.684 28.8388 106.884 29.0652 105.873 29.0652C105.204 29.0652 104.589 28.9425 104.026 28.697C103.467 28.4473 103.031 28.1046 102.718 27.6687C102.409 27.2328 102.255 26.725 102.255 26.1453H103.861C103.861 26.67 104.034 27.0763 104.381 27.364C104.728 27.6518 105.225 27.7957 105.873 27.7957C106.431 27.7957 106.85 27.6835 107.13 27.4592C107.413 27.2307 107.555 26.9303 107.555 26.5579ZM112.954 26.7292L114.35 22.0701H115.994L113.265 29.9792C112.846 31.1345 112.135 31.7122 111.132 31.7122C110.907 31.7122 110.66 31.6741 110.389 31.5979V30.4045L110.681 30.4236C111.07 30.4236 111.362 30.3516 111.557 30.2078C111.756 30.0681 111.913 29.8311 112.027 29.4968L112.249 28.9065L109.837 22.0701H111.5L112.954 26.7292ZM120.866 27.072C120.866 26.797 120.752 26.5875 120.523 26.4436C120.299 26.2997 119.924 26.1728 119.399 26.0627C118.875 25.9527 118.437 25.8131 118.086 25.6438C117.315 25.2714 116.93 24.7319 116.93 24.0251C116.93 23.4327 117.18 22.9376 117.679 22.5398C118.179 22.142 118.813 21.9431 119.584 21.9431C120.405 21.9431 121.067 22.1462 121.57 22.5525C122.078 22.9587 122.332 23.4856 122.332 24.1331H120.79C120.79 23.8368 120.68 23.5914 120.46 23.3967C120.239 23.1978 119.947 23.0984 119.584 23.0984C119.245 23.0984 118.968 23.1767 118.752 23.3333C118.54 23.4898 118.435 23.6993 118.435 23.9617C118.435 24.1986 118.534 24.3827 118.733 24.5139C118.932 24.6451 119.334 24.7784 119.939 24.9138C120.544 25.045 121.018 25.2037 121.361 25.3899C121.708 25.5719 121.964 25.7919 122.129 26.05C122.298 26.3082 122.383 26.6213 122.383 26.9895C122.383 27.6073 122.127 28.1088 121.615 28.4939C121.103 28.8748 120.432 29.0652 119.603 29.0652C119.04 29.0652 118.538 28.9636 118.098 28.7605C117.658 28.5574 117.315 28.2781 117.07 27.9226C116.824 27.5671 116.702 27.1842 116.702 26.7737H118.2C118.221 27.1376 118.358 27.419 118.612 27.6179C118.866 27.8126 119.203 27.9099 119.622 27.9099C120.028 27.9099 120.337 27.8337 120.548 27.6814C120.76 27.5248 120.866 27.3217 120.866 27.072ZM125.795 20.4006V22.0701H127.007V23.2126H125.795V27.0466C125.795 27.309 125.845 27.4994 125.947 27.6179C126.053 27.7322 126.239 27.7893 126.506 27.7893C126.683 27.7893 126.863 27.7681 127.045 27.7258V28.9192C126.694 29.0165 126.355 29.0652 126.029 29.0652C124.845 29.0652 124.252 28.4114 124.252 27.1038V23.2126H123.122V22.0701H124.252V20.4006H125.795ZM131.346 29.0652C130.368 29.0652 129.575 28.7584 128.965 28.1448C128.36 27.5269 128.057 26.706 128.057 25.6819V25.4915C128.057 24.8059 128.189 24.1944 128.451 23.657C128.718 23.1153 129.09 22.6943 129.568 22.3938C130.046 22.0933 130.58 21.9431 131.168 21.9431C132.103 21.9431 132.825 22.2415 133.332 22.8381C133.844 23.4348 134.1 24.2791 134.1 25.3708V25.9929H129.613C129.659 26.56 129.847 27.0085 130.178 27.3386C130.512 27.6687 130.931 27.8337 131.434 27.8337C132.141 27.8337 132.717 27.5481 133.161 26.9768L133.992 27.7703C133.717 28.1807 133.349 28.5002 132.888 28.7288C132.431 28.953 131.917 29.0652 131.346 29.0652ZM131.161 23.1809C130.738 23.1809 130.395 23.329 130.133 23.6252C129.875 23.9215 129.71 24.3341 129.638 24.863H132.577V24.7488C132.543 24.2325 132.406 23.8432 132.164 23.5808C131.923 23.3142 131.589 23.1809 131.161 23.1809ZM136.884 22.0701L136.928 22.7874C137.411 22.2245 138.071 21.9431 138.909 21.9431C139.827 21.9431 140.455 22.2944 140.794 22.9968C141.293 22.2944 141.996 21.9431 142.901 21.9431C143.659 21.9431 144.222 22.1526 144.59 22.5715C144.962 22.9905 145.153 23.6083 145.161 24.425V28.9382H143.619V24.4695C143.619 24.0336 143.523 23.7141 143.333 23.511C143.143 23.3079 142.827 23.2063 142.387 23.2063C142.036 23.2063 141.748 23.3015 141.524 23.4919C141.304 23.6781 141.149 23.9236 141.06 24.2283L141.067 28.9382H139.524V24.4187C139.503 23.6104 139.091 23.2063 138.287 23.2063C137.669 23.2063 137.231 23.4581 136.973 23.9617V28.9382H135.43V22.0701H136.884Z" fill="#334D6E"/>
</svg>
