<svg width="246" height="35" viewBox="0 0 246 35" fill="none" xmlns="http://www.w3.org/2000/svg">
<path d="M15.6406 8.62745C15.6406 8.99858 15.3401 9.29902 14.969 9.29902H9.36664C8.99551 9.29902 8.69507 8.99858 8.69507 8.62745V3.02509C8.69507 2.65396 8.99551 2.35352 9.36664 2.35352H14.969C15.3401 2.35352 15.6406 2.65396 15.6406 3.02509V8.62745Z" fill="#32A041"/>
<path d="M24 8.62745C24 8.99858 23.6995 9.29902 23.3284 9.29902H17.726C17.3549 9.29902 17.0544 8.99858 17.0544 8.62745V3.02509C17.0544 2.65396 17.3549 2.35352 17.726 2.35352H23.3284C23.6995 2.35352 24 2.65396 24 3.02509V8.62745Z" fill="#32A041"/>
<path d="M24 25.3284C24 25.6995 23.6995 26 23.3284 26H17.726C17.3549 26 17.0544 25.6995 17.0544 25.3284V19.726C17.0544 19.3549 17.3549 19.0544 17.726 19.0544H23.3284C23.6995 19.0544 24 19.3549 24 19.726V25.3284Z" fill="#32A041"/>
<path d="M7.2989 16.969C7.2989 17.3401 6.99846 17.6406 6.62733 17.6406H1.02497C0.653835 17.6406 0.353394 17.3401 0.353394 16.969V11.3666C0.353394 10.9955 0.653835 10.6951 1.02497 10.6951H6.62733C6.99846 10.6951 7.2989 10.9955 7.2989 11.3666V16.969Z" fill="#32A041"/>
<path d="M15.6406 16.969C15.6406 17.3401 15.3401 17.6406 14.969 17.6406H9.36664C8.99551 17.6406 8.69507 17.3401 8.69507 16.969V11.3666C8.69507 10.9955 8.99551 10.6951 9.36664 10.6951H14.969C15.3401 10.6951 15.6406 10.9955 15.6406 11.3666V16.969Z" fill="#32A041"/>
<path d="M7.2989 25.3284C7.2989 25.6995 6.99846 26 6.62733 26H1.02497C0.653835 26 0.353394 25.6995 0.353394 25.3284V19.726C0.353394 19.3549 0.653835 19.0544 1.02497 19.0544H6.62733C6.99846 19.0544 7.2989 19.3549 7.2989 19.726V25.3284Z" fill="#32A041"/>
<path d="M15.6406 25.3284C15.6406 25.6995 15.3401 26 14.969 26H9.36664C8.99551 26 8.69507 25.6995 8.69507 25.3284V19.726C8.69507 19.3549 8.99551 19.0544 9.36664 19.0544H14.969C15.3401 19.0544 15.6406 19.3549 15.6406 19.726V25.3284Z" fill="#32A041"/>
<path d="M7.2989 33.6875C7.2989 34.0586 6.99846 34.3591 6.62733 34.3591H1.02497C0.653835 34.3591 0.353394 34.0586 0.353394 33.6875V28.0852C0.353394 27.714 0.653835 27.4136 1.02497 27.4136H6.62733C6.99846 27.4136 7.2989 27.714 7.2989 28.0852V33.6875Z" fill="#32A041"/>
<path d="M15.6406 33.6875C15.6406 34.0586 15.3401 34.3591 14.969 34.3591H9.36664C8.99551 34.3591 8.69507 34.0586 8.69507 33.6875V28.0852C8.69507 27.714 8.99551 27.4136 9.36664 27.4136H14.969C15.3401 27.4136 15.6406 27.714 15.6406 28.0852V33.6875Z" fill="#32A041"/>
<path d="M7.65243 5.83505C7.65243 7.95582 5.93814 9.6701 3.81738 9.6701C1.69661 9.6701 0 7.95582 0 5.83505C0 3.71429 1.71429 2 3.81738 2C5.93814 2 7.65243 3.71429 7.65243 5.83505Z" fill="#C8191E"/>
<path d="M77.9395 6.75781H81.2085C81.911 6.75781 82.5098 6.86361 83.0049 7.0752C83.5 7.28678 83.8787 7.59993 84.1411 8.01465C84.4077 8.42513 84.541 8.93294 84.541 9.53809C84.541 9.99935 84.4564 10.4056 84.2871 10.7568C84.1178 11.1081 83.8787 11.4043 83.5698 11.6455C83.2609 11.8825 82.8927 12.0666 82.4653 12.1978L81.9829 12.4326H79.0439L79.0312 11.1694H81.2339C81.6147 11.1694 81.9321 11.1017 82.186 10.9663C82.4399 10.8309 82.6304 10.6468 82.7573 10.4141C82.8885 10.1771 82.9541 9.91048 82.9541 9.61426C82.9541 9.29264 82.8906 9.01335 82.7637 8.77637C82.641 8.53516 82.4505 8.35107 82.1924 8.22412C81.9342 8.09294 81.6063 8.02734 81.2085 8.02734H79.5327V16H77.9395V6.75781ZM83.2144 16L81.0435 11.8486L82.7129 11.8423L84.9155 15.9175V16H83.2144ZM89.1334 16.127C88.6256 16.127 88.1665 16.0444 87.756 15.8794C87.3497 15.7101 87.0027 15.4753 86.715 15.1748C86.4314 14.8743 86.2135 14.521 86.0612 14.1147C85.9088 13.7085 85.8326 13.2705 85.8326 12.8008V12.5469C85.8326 12.0094 85.9109 11.5228 86.0675 11.0869C86.2241 10.651 86.442 10.2786 86.7213 9.96973C87.0006 9.65658 87.3307 9.41748 87.7115 9.25244C88.0924 9.0874 88.505 9.00488 88.9493 9.00488C89.4402 9.00488 89.8697 9.0874 90.2379 9.25244C90.6061 9.41748 90.9108 9.65023 91.152 9.95068C91.3974 10.2469 91.5794 10.6003 91.6979 11.0107C91.8206 11.4212 91.882 11.874 91.882 12.3691V13.0229H86.5753V11.9248H90.3712V11.8042C90.3627 11.5291 90.3077 11.271 90.2062 11.0298C90.1088 10.7886 89.9586 10.5939 89.7555 10.4458C89.5524 10.2977 89.2815 10.2236 88.943 10.2236C88.6891 10.2236 88.4627 10.2786 88.2638 10.3887C88.0691 10.4945 87.9062 10.6489 87.775 10.8521C87.6438 11.0552 87.5423 11.3006 87.4703 11.5884C87.4026 11.8719 87.3688 12.1914 87.3688 12.5469V12.8008C87.3688 13.1012 87.409 13.3805 87.4894 13.6387C87.574 13.8926 87.6967 14.1147 87.8575 14.3052C88.0183 14.4956 88.213 14.6458 88.4415 14.7559C88.67 14.8617 88.9303 14.9146 89.2223 14.9146C89.5904 14.9146 89.9184 14.8405 90.2062 14.6924C90.4939 14.5443 90.7436 14.3348 90.9552 14.064L91.7613 14.8447C91.6132 15.0605 91.4207 15.2679 91.1837 15.4668C90.9467 15.6615 90.6569 15.8201 90.3141 15.9429C89.9755 16.0656 89.582 16.127 89.1334 16.127ZM97.0774 14.6226V11.3472C97.0774 11.1017 97.0329 10.8901 96.9441 10.7124C96.8552 10.5347 96.7198 10.3971 96.5378 10.2998C96.3601 10.2025 96.1358 10.1538 95.865 10.1538C95.6153 10.1538 95.3995 10.1961 95.2175 10.2808C95.0356 10.3654 94.8938 10.4797 94.7922 10.6235C94.6907 10.7674 94.6399 10.9303 94.6399 11.1123H93.1164C93.1164 10.8415 93.182 10.5791 93.3132 10.3252C93.4444 10.0713 93.6348 9.84489 93.8845 9.646C94.1342 9.4471 94.4325 9.29053 94.7795 9.17627C95.1265 9.06201 95.5159 9.00488 95.9475 9.00488C96.4638 9.00488 96.9208 9.09163 97.3186 9.26514C97.7206 9.43864 98.0359 9.70101 98.2644 10.0522C98.4971 10.3993 98.6135 10.8351 98.6135 11.3599V14.4131C98.6135 14.7262 98.6347 15.0076 98.677 15.2573C98.7235 15.5028 98.7891 15.7165 98.8738 15.8984V16H97.3059C97.234 15.835 97.1768 15.6255 97.1345 15.3716C97.0964 15.1134 97.0774 14.8638 97.0774 14.6226ZM97.2996 11.8232L97.3122 12.769H96.2141C95.9306 12.769 95.6809 12.7965 95.4651 12.8516C95.2493 12.9023 95.0694 12.9785 94.9255 13.0801C94.7816 13.1816 94.6737 13.3044 94.6018 13.4482C94.5299 13.5921 94.4939 13.755 94.4939 13.937C94.4939 14.119 94.5362 14.2861 94.6208 14.4385C94.7055 14.5866 94.8282 14.703 94.989 14.7876C95.154 14.8722 95.3529 14.9146 95.5857 14.9146C95.8988 14.9146 96.1718 14.8511 96.4045 14.7241C96.6415 14.5929 96.8277 14.4342 96.9631 14.248C97.0985 14.0576 97.1705 13.8778 97.1789 13.7085L97.6741 14.3877C97.6233 14.5612 97.5365 14.7474 97.4138 14.9463C97.2911 15.1452 97.1303 15.3356 96.9314 15.5176C96.7367 15.6953 96.5019 15.8413 96.2268 15.9556C95.956 16.0698 95.6428 16.127 95.2873 16.127C94.8388 16.127 94.4389 16.0381 94.0876 15.8604C93.7364 15.6784 93.4613 15.4351 93.2624 15.1304C93.0635 14.8215 92.9641 14.4723 92.9641 14.083C92.9641 13.7191 93.0318 13.3975 93.1672 13.1182C93.3069 12.8346 93.51 12.5977 93.7766 12.4072C94.0474 12.2168 94.3775 12.0729 94.7668 11.9756C95.1562 11.874 95.6005 11.8232 96.0998 11.8232H97.2996ZM101.981 6.25V16H100.445V6.25H101.981ZM106.935 9.13184V10.249H103.063V9.13184H106.935ZM104.18 7.44971H105.71V14.1021C105.71 14.3136 105.74 14.4766 105.799 14.5908C105.862 14.7008 105.949 14.7749 106.059 14.813C106.169 14.8511 106.298 14.8701 106.446 14.8701C106.552 14.8701 106.654 14.8638 106.751 14.8511C106.848 14.8384 106.927 14.8257 106.986 14.813L106.992 15.981C106.865 16.019 106.717 16.0529 106.548 16.0825C106.383 16.1121 106.192 16.127 105.977 16.127C105.625 16.127 105.314 16.0656 105.043 15.9429C104.773 15.8159 104.561 15.6107 104.409 15.3271C104.256 15.0436 104.18 14.667 104.18 14.1973V7.44971ZM109.883 9.13184V16H108.347V9.13184H109.883ZM108.246 7.3291C108.246 7.09635 108.322 6.90381 108.474 6.75146C108.631 6.59489 108.847 6.5166 109.122 6.5166C109.393 6.5166 109.606 6.59489 109.763 6.75146C109.919 6.90381 109.998 7.09635 109.998 7.3291C109.998 7.55762 109.919 7.74805 109.763 7.90039C109.606 8.05273 109.393 8.12891 109.122 8.12891C108.847 8.12891 108.631 8.05273 108.474 7.90039C108.322 7.74805 108.246 7.55762 108.246 7.3291ZM113.219 10.5283V16H111.689V9.13184H113.13L113.219 10.5283ZM112.971 12.312L112.451 12.3057C112.451 11.8317 112.51 11.3937 112.629 10.9917C112.747 10.5897 112.921 10.2406 113.149 9.94434C113.378 9.64388 113.661 9.41325 114 9.25244C114.342 9.0874 114.738 9.00488 115.187 9.00488C115.5 9.00488 115.786 9.05143 116.044 9.14453C116.306 9.2334 116.532 9.37516 116.723 9.56982C116.918 9.76449 117.066 10.0142 117.167 10.3188C117.273 10.6235 117.326 10.9917 117.326 11.4233V16H115.796V11.5566C115.796 11.2223 115.745 10.96 115.644 10.7695C115.546 10.5791 115.405 10.4437 115.218 10.3633C115.037 10.2786 114.819 10.2363 114.565 10.2363C114.277 10.2363 114.031 10.2913 113.828 10.4014C113.629 10.5114 113.467 10.6616 113.34 10.8521C113.213 11.0425 113.12 11.2625 113.06 11.5122C113.001 11.7619 112.971 12.0285 112.971 12.312ZM117.231 11.9058L116.513 12.0645C116.513 11.6497 116.571 11.2583 116.685 10.8901C116.803 10.5177 116.975 10.1919 117.199 9.9126C117.427 9.62907 117.709 9.4069 118.043 9.24609C118.377 9.08529 118.76 9.00488 119.192 9.00488C119.543 9.00488 119.856 9.05355 120.132 9.15088C120.411 9.24398 120.648 9.39209 120.842 9.59521C121.037 9.79834 121.185 10.0628 121.287 10.3887C121.388 10.7103 121.439 11.0996 121.439 11.5566V16H119.903V11.5503C119.903 11.2033 119.852 10.9346 119.751 10.7441C119.653 10.5537 119.514 10.4225 119.332 10.3506C119.15 10.2744 118.932 10.2363 118.678 10.2363C118.441 10.2363 118.231 10.2808 118.05 10.3696C117.872 10.4543 117.722 10.5749 117.599 10.7314C117.476 10.8838 117.383 11.0594 117.32 11.2583C117.26 11.4572 117.231 11.673 117.231 11.9058ZM126.171 16.127C125.663 16.127 125.204 16.0444 124.794 15.8794C124.388 15.7101 124.041 15.4753 123.753 15.1748C123.469 14.8743 123.251 14.521 123.099 14.1147C122.947 13.7085 122.87 13.2705 122.87 12.8008V12.5469C122.87 12.0094 122.949 11.5228 123.105 11.0869C123.262 10.651 123.48 10.2786 123.759 9.96973C124.038 9.65658 124.368 9.41748 124.749 9.25244C125.13 9.0874 125.543 9.00488 125.987 9.00488C126.478 9.00488 126.908 9.0874 127.276 9.25244C127.644 9.41748 127.949 9.65023 128.19 9.95068C128.435 10.2469 128.617 10.6003 128.736 11.0107C128.858 11.4212 128.92 11.874 128.92 12.3691V13.0229H123.613V11.9248H127.409V11.8042C127.401 11.5291 127.346 11.271 127.244 11.0298C127.147 10.7886 126.996 10.5939 126.793 10.4458C126.59 10.2977 126.319 10.2236 125.981 10.2236C125.727 10.2236 125.5 10.2786 125.302 10.3887C125.107 10.4945 124.944 10.6489 124.813 10.8521C124.682 11.0552 124.58 11.3006 124.508 11.5884C124.44 11.8719 124.407 12.1914 124.407 12.5469V12.8008C124.407 13.1012 124.447 13.3805 124.527 13.6387C124.612 13.8926 124.735 14.1147 124.895 14.3052C125.056 14.4956 125.251 14.6458 125.479 14.7559C125.708 14.8617 125.968 14.9146 126.26 14.9146C126.628 14.9146 126.956 14.8405 127.244 14.6924C127.532 14.5443 127.781 14.3348 127.993 14.064L128.799 14.8447C128.651 15.0605 128.459 15.2679 128.222 15.4668C127.985 15.6615 127.695 15.8201 127.352 15.9429C127.013 16.0656 126.62 16.127 126.171 16.127ZM138.625 13.6196C138.625 13.4292 138.595 13.2599 138.536 13.1118C138.481 12.9637 138.382 12.8283 138.238 12.7056C138.094 12.5828 137.891 12.4644 137.628 12.3501C137.37 12.2316 137.04 12.111 136.638 11.9883C136.198 11.8529 135.792 11.7026 135.42 11.5376C135.051 11.3683 134.73 11.1737 134.455 10.9536C134.18 10.7293 133.966 10.4733 133.814 10.1855C133.661 9.89355 133.585 9.55713 133.585 9.17627C133.585 8.79964 133.663 8.45687 133.82 8.14795C133.981 7.83903 134.207 7.57243 134.499 7.34814C134.795 7.11963 135.144 6.94401 135.546 6.82129C135.948 6.69434 136.393 6.63086 136.879 6.63086C137.565 6.63086 138.155 6.75781 138.65 7.01172C139.15 7.26562 139.533 7.60628 139.799 8.03369C140.07 8.4611 140.206 8.93294 140.206 9.44922H138.625C138.625 9.14453 138.559 8.87581 138.428 8.64307C138.301 8.40609 138.107 8.21989 137.844 8.08447C137.586 7.94906 137.258 7.88135 136.86 7.88135C136.484 7.88135 136.171 7.93848 135.921 8.05273C135.671 8.16699 135.485 8.32145 135.362 8.51611C135.24 8.71077 135.178 8.93083 135.178 9.17627C135.178 9.34977 135.219 9.50846 135.299 9.65234C135.379 9.79199 135.502 9.92318 135.667 10.0459C135.832 10.1644 136.039 10.2765 136.289 10.3823C136.539 10.4881 136.833 10.5897 137.171 10.687C137.684 10.8394 138.13 11.0086 138.511 11.1948C138.892 11.3768 139.209 11.5841 139.463 11.8169C139.717 12.0496 139.907 12.3141 140.034 12.6104C140.161 12.9023 140.225 13.2345 140.225 13.6069C140.225 13.9963 140.146 14.3475 139.99 14.6606C139.833 14.9696 139.609 15.234 139.317 15.4541C139.029 15.6699 138.682 15.8371 138.276 15.9556C137.874 16.0698 137.425 16.127 136.93 16.127C136.486 16.127 136.048 16.0677 135.616 15.9492C135.189 15.8307 134.8 15.6509 134.448 15.4097C134.097 15.1642 133.818 14.8595 133.61 14.4956C133.403 14.1274 133.299 13.6979 133.299 13.207H134.893C134.893 13.5075 134.943 13.7635 135.045 13.9751C135.151 14.1867 135.297 14.3602 135.483 14.4956C135.669 14.6268 135.885 14.7241 136.13 14.7876C136.38 14.8511 136.647 14.8828 136.93 14.8828C137.303 14.8828 137.614 14.8299 137.863 14.7241C138.117 14.6183 138.308 14.4702 138.435 14.2798C138.562 14.0894 138.625 13.8693 138.625 13.6196ZM144.76 9.13184V10.249H140.888V9.13184H144.76ZM142.005 7.44971H143.535V14.1021C143.535 14.3136 143.564 14.4766 143.624 14.5908C143.687 14.7008 143.774 14.7749 143.884 14.813C143.994 14.8511 144.123 14.8701 144.271 14.8701C144.377 14.8701 144.479 14.8638 144.576 14.8511C144.673 14.8384 144.751 14.8257 144.811 14.813L144.817 15.981C144.69 16.019 144.542 16.0529 144.373 16.0825C144.208 16.1121 144.017 16.127 143.801 16.127C143.45 16.127 143.139 16.0656 142.868 15.9429C142.598 15.8159 142.386 15.6107 142.234 15.3271C142.081 15.0436 142.005 14.667 142.005 14.1973V7.44971ZM147.607 10.4395V16H146.077V9.13184H147.537L147.607 10.4395ZM149.708 9.0874L149.695 10.5093C149.602 10.4924 149.5 10.4797 149.39 10.4712C149.285 10.4627 149.179 10.4585 149.073 10.4585C148.811 10.4585 148.58 10.4966 148.381 10.5728C148.182 10.6447 148.015 10.7505 147.88 10.8901C147.749 11.0256 147.647 11.1906 147.575 11.3853C147.503 11.5799 147.461 11.7979 147.448 12.0391L147.099 12.0645C147.099 11.6328 147.141 11.2329 147.226 10.8647C147.311 10.4966 147.437 10.1729 147.607 9.89355C147.78 9.61426 147.996 9.39632 148.254 9.23975C148.517 9.08317 148.819 9.00488 149.162 9.00488C149.255 9.00488 149.354 9.01335 149.46 9.03027C149.57 9.0472 149.653 9.06624 149.708 9.0874ZM154.929 14.3813V9.13184H156.465V16H155.018L154.929 14.3813ZM155.144 12.9531L155.659 12.9404C155.659 13.4017 155.608 13.827 155.506 14.2163C155.405 14.6014 155.248 14.9378 155.037 15.2256C154.825 15.5091 154.554 15.7313 154.224 15.8921C153.894 16.0487 153.498 16.127 153.037 16.127C152.703 16.127 152.396 16.0783 152.117 15.981C151.837 15.8836 151.596 15.7334 151.393 15.5303C151.194 15.3271 151.04 15.0627 150.93 14.7368C150.82 14.411 150.765 14.0216 150.765 13.5688V9.13184H152.294V13.5815C152.294 13.8312 152.324 14.0407 152.383 14.21C152.442 14.375 152.523 14.5083 152.624 14.6099C152.726 14.7114 152.845 14.7834 152.98 14.8257C153.115 14.868 153.259 14.8892 153.412 14.8892C153.847 14.8892 154.19 14.8045 154.44 14.6353C154.694 14.4618 154.874 14.229 154.979 13.937C155.089 13.645 155.144 13.3171 155.144 12.9531ZM160.968 14.9082C161.218 14.9082 161.442 14.8595 161.641 14.7622C161.844 14.6606 162.007 14.521 162.13 14.3433C162.257 14.1655 162.327 13.9603 162.339 13.7275H163.78C163.772 14.1719 163.641 14.576 163.387 14.9399C163.133 15.3039 162.796 15.5938 162.378 15.8096C161.959 16.0212 161.495 16.127 160.987 16.127C160.463 16.127 160.006 16.0381 159.616 15.8604C159.227 15.6784 158.903 15.4287 158.645 15.1113C158.387 14.7939 158.192 14.4279 158.061 14.0132C157.934 13.5985 157.871 13.1541 157.871 12.6802V12.458C157.871 11.984 157.934 11.5397 158.061 11.125C158.192 10.7061 158.387 10.3379 158.645 10.0205C158.903 9.70312 159.227 9.45557 159.616 9.27783C160.006 9.09587 160.461 9.00488 160.981 9.00488C161.531 9.00488 162.014 9.11491 162.428 9.33496C162.843 9.55078 163.169 9.85335 163.406 10.2427C163.647 10.6278 163.772 11.0763 163.78 11.5884H162.339C162.327 11.3345 162.263 11.106 162.149 10.9028C162.039 10.6955 161.882 10.5304 161.679 10.4077C161.48 10.285 161.241 10.2236 160.962 10.2236C160.653 10.2236 160.397 10.2871 160.194 10.4141C159.991 10.5368 159.832 10.7061 159.718 10.9219C159.604 11.1335 159.521 11.3726 159.47 11.6392C159.424 11.9015 159.4 12.1745 159.4 12.458V12.6802C159.4 12.9637 159.424 13.2388 159.47 13.5054C159.517 13.772 159.597 14.0111 159.711 14.2227C159.83 14.43 159.991 14.5972 160.194 14.7241C160.397 14.8468 160.655 14.9082 160.968 14.9082ZM168.233 9.13184V10.249H164.361V9.13184H168.233ZM165.478 7.44971H167.008V14.1021C167.008 14.3136 167.038 14.4766 167.097 14.5908C167.16 14.7008 167.247 14.7749 167.357 14.813C167.467 14.8511 167.596 14.8701 167.744 14.8701C167.85 14.8701 167.952 14.8638 168.049 14.8511C168.146 14.8384 168.225 14.8257 168.284 14.813L168.29 15.981C168.163 16.019 168.015 16.0529 167.846 16.0825C167.681 16.1121 167.49 16.127 167.275 16.127C166.923 16.127 166.612 16.0656 166.341 15.9429C166.071 15.8159 165.859 15.6107 165.707 15.3271C165.554 15.0436 165.478 14.667 165.478 14.1973V7.44971ZM173.676 14.3813V9.13184H175.212V16H173.765L173.676 14.3813ZM173.892 12.9531L174.406 12.9404C174.406 13.4017 174.355 13.827 174.254 14.2163C174.152 14.6014 173.996 14.9378 173.784 15.2256C173.572 15.5091 173.302 15.7313 172.971 15.8921C172.641 16.0487 172.246 16.127 171.784 16.127C171.45 16.127 171.143 16.0783 170.864 15.981C170.585 15.8836 170.344 15.7334 170.14 15.5303C169.942 15.3271 169.787 15.0627 169.677 14.7368C169.567 14.411 169.512 14.0216 169.512 13.5688V9.13184H171.042V13.5815C171.042 13.8312 171.071 14.0407 171.131 14.21C171.19 14.375 171.27 14.5083 171.372 14.6099C171.473 14.7114 171.592 14.7834 171.727 14.8257C171.863 14.868 172.007 14.8892 172.159 14.8892C172.595 14.8892 172.938 14.8045 173.187 14.6353C173.441 14.4618 173.621 14.229 173.727 13.937C173.837 13.645 173.892 13.3171 173.892 12.9531ZM178.446 10.4395V16H176.916V9.13184H178.376L178.446 10.4395ZM180.547 9.0874L180.535 10.5093C180.441 10.4924 180.34 10.4797 180.23 10.4712C180.124 10.4627 180.018 10.4585 179.913 10.4585C179.65 10.4585 179.42 10.4966 179.221 10.5728C179.022 10.6447 178.855 10.7505 178.719 10.8901C178.588 11.0256 178.486 11.1906 178.414 11.3853C178.343 11.5799 178.3 11.7979 178.288 12.0391L177.938 12.0645C177.938 11.6328 177.981 11.2329 178.065 10.8647C178.15 10.4966 178.277 10.1729 178.446 9.89355C178.62 9.61426 178.836 9.39632 179.094 9.23975C179.356 9.08317 179.659 9.00488 180.001 9.00488C180.094 9.00488 180.194 9.01335 180.3 9.03027C180.41 9.0472 180.492 9.06624 180.547 9.0874ZM185.279 14.6226V11.3472C185.279 11.1017 185.235 10.8901 185.146 10.7124C185.057 10.5347 184.922 10.3971 184.74 10.2998C184.562 10.2025 184.338 10.1538 184.067 10.1538C183.817 10.1538 183.601 10.1961 183.419 10.2808C183.238 10.3654 183.096 10.4797 182.994 10.6235C182.893 10.7674 182.842 10.9303 182.842 11.1123H181.318C181.318 10.8415 181.384 10.5791 181.515 10.3252C181.646 10.0713 181.837 9.84489 182.086 9.646C182.336 9.4471 182.634 9.29053 182.981 9.17627C183.328 9.06201 183.718 9.00488 184.149 9.00488C184.666 9.00488 185.123 9.09163 185.521 9.26514C185.923 9.43864 186.238 9.70101 186.466 10.0522C186.699 10.3993 186.815 10.8351 186.815 11.3599V14.4131C186.815 14.7262 186.837 15.0076 186.879 15.2573C186.925 15.5028 186.991 15.7165 187.076 15.8984V16H185.508C185.436 15.835 185.379 15.6255 185.336 15.3716C185.298 15.1134 185.279 14.8638 185.279 14.6226ZM185.502 11.8232L185.514 12.769H184.416C184.133 12.769 183.883 12.7965 183.667 12.8516C183.451 12.9023 183.271 12.9785 183.127 13.0801C182.984 13.1816 182.876 13.3044 182.804 13.4482C182.732 13.5921 182.696 13.755 182.696 13.937C182.696 14.119 182.738 14.2861 182.823 14.4385C182.907 14.5866 183.03 14.703 183.191 14.7876C183.356 14.8722 183.555 14.9146 183.788 14.9146C184.101 14.9146 184.374 14.8511 184.606 14.7241C184.843 14.5929 185.03 14.4342 185.165 14.248C185.3 14.0576 185.372 13.8778 185.381 13.7085L185.876 14.3877C185.825 14.5612 185.738 14.7474 185.616 14.9463C185.493 15.1452 185.332 15.3356 185.133 15.5176C184.939 15.6953 184.704 15.8413 184.429 15.9556C184.158 16.0698 183.845 16.127 183.489 16.127C183.041 16.127 182.641 16.0381 182.29 15.8604C181.938 15.6784 181.663 15.4351 181.464 15.1304C181.266 14.8215 181.166 14.4723 181.166 14.083C181.166 13.7191 181.234 13.3975 181.369 13.1182C181.509 12.8346 181.712 12.5977 181.979 12.4072C182.249 12.2168 182.579 12.0729 182.969 11.9756C183.358 11.874 183.802 11.8232 184.302 11.8232H185.502ZM190.183 6.25V16H188.647V6.25H190.183ZM201.615 10.6172V11.8804H196.708V10.6172H201.615ZM197.101 6.75781V16H195.508V6.75781H197.101ZM202.84 6.75781V16H201.253V6.75781H202.84ZM207.743 16.127C207.235 16.127 206.776 16.0444 206.366 15.8794C205.959 15.7101 205.612 15.4753 205.325 15.1748C205.041 14.8743 204.823 14.521 204.671 14.1147C204.519 13.7085 204.442 13.2705 204.442 12.8008V12.5469C204.442 12.0094 204.521 11.5228 204.677 11.0869C204.834 10.651 205.052 10.2786 205.331 9.96973C205.61 9.65658 205.94 9.41748 206.321 9.25244C206.702 9.0874 207.115 9.00488 207.559 9.00488C208.05 9.00488 208.48 9.0874 208.848 9.25244C209.216 9.41748 209.521 9.65023 209.762 9.95068C210.007 10.2469 210.189 10.6003 210.308 11.0107C210.43 11.4212 210.492 11.874 210.492 12.3691V13.0229H205.185V11.9248H208.981V11.8042C208.973 11.5291 208.918 11.271 208.816 11.0298C208.719 10.7886 208.568 10.5939 208.365 10.4458C208.162 10.2977 207.891 10.2236 207.553 10.2236C207.299 10.2236 207.072 10.2786 206.874 10.3887C206.679 10.4945 206.516 10.6489 206.385 10.8521C206.254 11.0552 206.152 11.3006 206.08 11.5884C206.012 11.8719 205.979 12.1914 205.979 12.5469V12.8008C205.979 13.1012 206.019 13.3805 206.099 13.6387C206.184 13.8926 206.307 14.1147 206.467 14.3052C206.628 14.4956 206.823 14.6458 207.051 14.7559C207.28 14.8617 207.54 14.9146 207.832 14.9146C208.2 14.9146 208.528 14.8405 208.816 14.6924C209.104 14.5443 209.353 14.3348 209.565 14.064L210.371 14.8447C210.223 15.0605 210.03 15.2679 209.793 15.4668C209.557 15.6615 209.267 15.8201 208.924 15.9429C208.585 16.0656 208.192 16.127 207.743 16.127ZM215.687 14.6226V11.3472C215.687 11.1017 215.643 10.8901 215.554 10.7124C215.465 10.5347 215.33 10.3971 215.148 10.2998C214.97 10.2025 214.746 10.1538 214.475 10.1538C214.225 10.1538 214.009 10.1961 213.827 10.2808C213.645 10.3654 213.504 10.4797 213.402 10.6235C213.3 10.7674 213.25 10.9303 213.25 11.1123H211.726C211.726 10.8415 211.792 10.5791 211.923 10.3252C212.054 10.0713 212.245 9.84489 212.494 9.646C212.744 9.4471 213.042 9.29053 213.389 9.17627C213.736 9.06201 214.126 9.00488 214.557 9.00488C215.074 9.00488 215.531 9.09163 215.928 9.26514C216.33 9.43864 216.646 9.70101 216.874 10.0522C217.107 10.3993 217.223 10.8351 217.223 11.3599V14.4131C217.223 14.7262 217.244 15.0076 217.287 15.2573C217.333 15.5028 217.399 15.7165 217.484 15.8984V16H215.916C215.844 15.835 215.787 15.6255 215.744 15.3716C215.706 15.1134 215.687 14.8638 215.687 14.6226ZM215.909 11.8232L215.922 12.769H214.824C214.54 12.769 214.291 12.7965 214.075 12.8516C213.859 12.9023 213.679 12.9785 213.535 13.0801C213.391 13.1816 213.284 13.3044 213.212 13.4482C213.14 13.5921 213.104 13.755 213.104 13.937C213.104 14.119 213.146 14.2861 213.231 14.4385C213.315 14.5866 213.438 14.703 213.599 14.7876C213.764 14.8722 213.963 14.9146 214.195 14.9146C214.509 14.9146 214.782 14.8511 215.014 14.7241C215.251 14.5929 215.437 14.4342 215.573 14.248C215.708 14.0576 215.78 13.8778 215.789 13.7085L216.284 14.3877C216.233 14.5612 216.146 14.7474 216.024 14.9463C215.901 15.1452 215.74 15.3356 215.541 15.5176C215.346 15.6953 215.112 15.8413 214.837 15.9556C214.566 16.0698 214.253 16.127 213.897 16.127C213.449 16.127 213.049 16.0381 212.697 15.8604C212.346 15.6784 212.071 15.4351 211.872 15.1304C211.673 14.8215 211.574 14.4723 211.574 14.083C211.574 13.7191 211.642 13.3975 211.777 13.1182C211.917 12.8346 212.12 12.5977 212.386 12.4072C212.657 12.2168 212.987 12.0729 213.377 11.9756C213.766 11.874 214.21 11.8232 214.71 11.8232H215.909ZM220.591 6.25V16H219.054V6.25H220.591ZM225.545 9.13184V10.249H221.673V9.13184H225.545ZM222.79 7.44971H224.32V14.1021C224.32 14.3136 224.349 14.4766 224.409 14.5908C224.472 14.7008 224.559 14.7749 224.669 14.813C224.779 14.8511 224.908 14.8701 225.056 14.8701C225.162 14.8701 225.263 14.8638 225.361 14.8511C225.458 14.8384 225.536 14.8257 225.596 14.813L225.602 15.981C225.475 16.019 225.327 16.0529 225.158 16.0825C224.993 16.1121 224.802 16.127 224.586 16.127C224.235 16.127 223.924 16.0656 223.653 15.9429C223.382 15.8159 223.171 15.6107 223.018 15.3271C222.866 15.0436 222.79 14.667 222.79 14.1973V7.44971ZM228.366 6.25V16H226.843V6.25H228.366ZM228.1 12.312L227.604 12.3057C227.609 11.8317 227.674 11.3937 227.801 10.9917C227.932 10.5897 228.114 10.2406 228.347 9.94434C228.584 9.64388 228.868 9.41325 229.198 9.25244C229.528 9.0874 229.894 9.00488 230.296 9.00488C230.634 9.00488 230.939 9.05143 231.21 9.14453C231.485 9.23763 231.722 9.38786 231.921 9.59521C232.12 9.79834 232.27 10.0649 232.372 10.395C232.477 10.7209 232.53 11.1187 232.53 11.5884V16H230.994V11.5757C230.994 11.2456 230.945 10.9832 230.848 10.7886C230.755 10.5939 230.618 10.4543 230.436 10.3696C230.254 10.2808 230.031 10.2363 229.769 10.2363C229.494 10.2363 229.251 10.2913 229.039 10.4014C228.832 10.5114 228.658 10.6616 228.519 10.8521C228.379 11.0425 228.273 11.2625 228.201 11.5122C228.133 11.7619 228.1 12.0285 228.1 12.312ZM78.5869 21.7578H80.0088L82.6812 28.8862L85.3472 21.7578H86.769L83.2397 31H82.1099L78.5869 21.7578ZM77.9395 21.7578H79.2915L79.5264 27.9277V31H77.9395V21.7578ZM86.0645 21.7578H87.4229V31H85.8296V27.9277L86.0645 21.7578ZM89.0001 27.6421V27.4961C89.0001 27.001 89.0721 26.5418 89.2159 26.1187C89.3598 25.6912 89.5672 25.321 89.838 25.0078C90.1131 24.6904 90.4474 24.445 90.8409 24.2715C91.2387 24.0938 91.6873 24.0049 92.1866 24.0049C92.6902 24.0049 93.1388 24.0938 93.5323 24.2715C93.9301 24.445 94.2666 24.6904 94.5416 25.0078C94.8167 25.321 95.0262 25.6912 95.17 26.1187C95.3139 26.5418 95.3859 27.001 95.3859 27.4961V27.6421C95.3859 28.1372 95.3139 28.5964 95.17 29.0195C95.0262 29.4427 94.8167 29.813 94.5416 30.1304C94.2666 30.4435 93.9322 30.689 93.5387 30.8667C93.1451 31.0402 92.6987 31.127 92.1993 31.127C91.6958 31.127 91.2451 31.0402 90.8473 30.8667C90.4537 30.689 90.1194 30.4435 89.8444 30.1304C89.5693 29.813 89.3598 29.4427 89.2159 29.0195C89.0721 28.5964 89.0001 28.1372 89.0001 27.6421ZM90.5299 27.4961V27.6421C90.5299 27.951 90.5616 28.243 90.6251 28.5181C90.6886 28.7931 90.788 29.0343 90.9235 29.2417C91.0589 29.4491 91.2324 29.612 91.444 29.7305C91.6556 29.849 91.9073 29.9082 92.1993 29.9082C92.4829 29.9082 92.7283 29.849 92.9357 29.7305C93.1473 29.612 93.3208 29.4491 93.4562 29.2417C93.5916 29.0343 93.691 28.7931 93.7545 28.5181C93.8222 28.243 93.8561 27.951 93.8561 27.6421V27.4961C93.8561 27.1914 93.8222 26.9036 93.7545 26.6328C93.691 26.3577 93.5895 26.1144 93.4498 25.9028C93.3144 25.6912 93.1409 25.5262 92.9293 25.4077C92.722 25.285 92.4744 25.2236 92.1866 25.2236C91.8989 25.2236 91.6492 25.285 91.4376 25.4077C91.2303 25.5262 91.0589 25.6912 90.9235 25.9028C90.788 26.1144 90.6886 26.3577 90.6251 26.6328C90.5616 26.9036 90.5299 27.1914 90.5299 27.4961ZM98.3152 25.5981V31H96.7854V24.1318H98.2263L98.3152 25.5981ZM98.0422 27.312L97.5471 27.3057C97.5513 26.819 97.619 26.3726 97.7502 25.9663C97.8857 25.5601 98.0718 25.2109 98.3088 24.9189C98.55 24.627 98.8378 24.4027 99.1721 24.2461C99.5064 24.0853 99.8788 24.0049 100.289 24.0049C100.619 24.0049 100.918 24.0514 101.184 24.1445C101.455 24.2334 101.686 24.3794 101.876 24.5825C102.071 24.7856 102.219 25.0501 102.321 25.376C102.422 25.6976 102.473 26.0933 102.473 26.563V31H100.937V26.5566C100.937 26.2266 100.888 25.9663 100.791 25.7759C100.698 25.5812 100.56 25.4437 100.378 25.3633C100.2 25.2786 99.9783 25.2363 99.7117 25.2363C99.4493 25.2363 99.2144 25.2913 99.0071 25.4014C98.7997 25.5114 98.6241 25.6616 98.4802 25.8521C98.3406 26.0425 98.2327 26.2625 98.1565 26.5122C98.0803 26.7619 98.0422 27.0285 98.0422 27.312ZM105.802 24.1318V31H104.266V24.1318H105.802ZM104.164 22.3291C104.164 22.0964 104.241 21.9038 104.393 21.7515C104.55 21.5949 104.765 21.5166 105.04 21.5166C105.311 21.5166 105.525 21.5949 105.682 21.7515C105.838 21.9038 105.916 22.0964 105.916 22.3291C105.916 22.5576 105.838 22.748 105.682 22.9004C105.525 23.0527 105.311 23.1289 105.04 23.1289C104.765 23.1289 104.55 23.0527 104.393 22.9004C104.241 22.748 104.164 22.5576 104.164 22.3291ZM110.756 24.1318V25.249H106.884V24.1318H110.756ZM108.001 22.4497H109.531V29.1021C109.531 29.3136 109.561 29.4766 109.62 29.5908C109.684 29.7008 109.77 29.7749 109.88 29.813C109.99 29.8511 110.119 29.8701 110.268 29.8701C110.373 29.8701 110.475 29.8638 110.572 29.8511C110.67 29.8384 110.748 29.8257 110.807 29.813L110.813 30.981C110.687 31.019 110.538 31.0529 110.369 31.0825C110.204 31.1121 110.014 31.127 109.798 31.127C109.447 31.127 109.136 31.0656 108.865 30.9429C108.594 30.8159 108.382 30.6107 108.23 30.3271C108.078 30.0436 108.001 29.667 108.001 29.1973V22.4497ZM111.623 27.6421V27.4961C111.623 27.001 111.695 26.5418 111.838 26.1187C111.982 25.6912 112.19 25.321 112.461 25.0078C112.736 24.6904 113.07 24.445 113.463 24.2715C113.861 24.0938 114.31 24.0049 114.809 24.0049C115.313 24.0049 115.761 24.0938 116.155 24.2715C116.553 24.445 116.889 24.6904 117.164 25.0078C117.439 25.321 117.649 25.6912 117.793 26.1187C117.936 26.5418 118.008 27.001 118.008 27.4961V27.6421C118.008 28.1372 117.936 28.5964 117.793 29.0195C117.649 29.4427 117.439 29.813 117.164 30.1304C116.889 30.4435 116.555 30.689 116.161 30.8667C115.768 31.0402 115.321 31.127 114.822 31.127C114.318 31.127 113.868 31.0402 113.47 30.8667C113.076 30.689 112.742 30.4435 112.467 30.1304C112.192 29.813 111.982 29.4427 111.838 29.0195C111.695 28.5964 111.623 28.1372 111.623 27.6421ZM113.152 27.4961V27.6421C113.152 27.951 113.184 28.243 113.248 28.5181C113.311 28.7931 113.411 29.0343 113.546 29.2417C113.681 29.4491 113.855 29.612 114.067 29.7305C114.278 29.849 114.53 29.9082 114.822 29.9082C115.105 29.9082 115.351 29.849 115.558 29.7305C115.77 29.612 115.943 29.4491 116.079 29.2417C116.214 29.0343 116.314 28.7931 116.377 28.5181C116.445 28.243 116.479 27.951 116.479 27.6421V27.4961C116.479 27.1914 116.445 26.9036 116.377 26.6328C116.314 26.3577 116.212 26.1144 116.072 25.9028C115.937 25.6912 115.763 25.5262 115.552 25.4077C115.345 25.285 115.097 25.2236 114.809 25.2236C114.521 25.2236 114.272 25.285 114.06 25.4077C113.853 25.5262 113.681 25.6912 113.546 25.9028C113.411 26.1144 113.311 26.3577 113.248 26.6328C113.184 26.9036 113.152 27.1914 113.152 27.4961ZM120.957 25.4395V31H119.427V24.1318H120.887L120.957 25.4395ZM123.058 24.0874L123.045 25.5093C122.952 25.4924 122.85 25.4797 122.74 25.4712C122.635 25.4627 122.529 25.4585 122.423 25.4585C122.161 25.4585 121.93 25.4966 121.731 25.5728C121.532 25.6447 121.365 25.7505 121.23 25.8901C121.099 26.0256 120.997 26.1906 120.925 26.3853C120.853 26.5799 120.811 26.7979 120.798 27.0391L120.449 27.0645C120.449 26.6328 120.491 26.2329 120.576 25.8647C120.661 25.4966 120.787 25.1729 120.957 24.8936C121.13 24.6143 121.346 24.3963 121.604 24.2397C121.867 24.0832 122.169 24.0049 122.512 24.0049C122.605 24.0049 122.704 24.0133 122.81 24.0303C122.92 24.0472 123.003 24.0662 123.058 24.0874ZM125.784 24.1318V31H124.248V24.1318H125.784ZM124.146 22.3291C124.146 22.0964 124.222 21.9038 124.375 21.7515C124.531 21.5949 124.747 21.5166 125.022 21.5166C125.293 21.5166 125.507 21.5949 125.663 21.7515C125.82 21.9038 125.898 22.0964 125.898 22.3291C125.898 22.5576 125.82 22.748 125.663 22.9004C125.507 23.0527 125.293 23.1289 125.022 23.1289C124.747 23.1289 124.531 23.0527 124.375 22.9004C124.222 22.748 124.146 22.5576 124.146 22.3291ZM129.107 25.5981V31H127.577V24.1318H129.018L129.107 25.5981ZM128.834 27.312L128.339 27.3057C128.343 26.819 128.411 26.3726 128.542 25.9663C128.677 25.5601 128.864 25.2109 129.101 24.9189C129.342 24.627 129.63 24.4027 129.964 24.2461C130.298 24.0853 130.671 24.0049 131.081 24.0049C131.411 24.0049 131.709 24.0514 131.976 24.1445C132.247 24.2334 132.478 24.3794 132.668 24.5825C132.863 24.7856 133.011 25.0501 133.112 25.376C133.214 25.6976 133.265 26.0933 133.265 26.563V31H131.728V26.5566C131.728 26.2266 131.68 25.9663 131.582 25.7759C131.489 25.5812 131.352 25.4437 131.17 25.3633C130.992 25.2786 130.77 25.2363 130.503 25.2363C130.241 25.2363 130.006 25.2913 129.799 25.4014C129.591 25.5114 129.416 25.6616 129.272 25.8521C129.132 26.0425 129.024 26.2625 128.948 26.5122C128.872 26.7619 128.834 27.0285 128.834 27.312ZM139.355 24.1318H140.745V30.8096C140.745 31.4274 140.614 31.9521 140.352 32.3838C140.089 32.8154 139.723 33.1434 139.253 33.3677C138.784 33.5962 138.24 33.7104 137.622 33.7104C137.36 33.7104 137.068 33.6724 136.746 33.5962C136.429 33.52 136.12 33.3973 135.819 33.228C135.523 33.063 135.276 32.8451 135.077 32.5742L135.794 31.6729C136.039 31.9648 136.31 32.1785 136.607 32.314C136.903 32.4494 137.214 32.5171 137.54 32.5171C137.891 32.5171 138.189 32.4515 138.435 32.3203C138.684 32.1934 138.877 32.005 139.012 31.7554C139.148 31.5057 139.215 31.201 139.215 30.8413V25.687L139.355 24.1318ZM134.69 27.6421V27.5088C134.69 26.9883 134.753 26.5143 134.88 26.0869C135.007 25.6553 135.189 25.285 135.426 24.9761C135.663 24.6629 135.951 24.4238 136.289 24.2588C136.628 24.0895 137.011 24.0049 137.438 24.0049C137.882 24.0049 138.261 24.0853 138.574 24.2461C138.892 24.4069 139.156 24.6375 139.368 24.938C139.579 25.2342 139.744 25.5897 139.863 26.0044C139.986 26.4149 140.077 26.8719 140.136 27.3755V27.8008C140.081 28.2917 139.988 28.7402 139.857 29.1465C139.725 29.5527 139.552 29.904 139.336 30.2002C139.12 30.4964 138.854 30.7249 138.536 30.8857C138.223 31.0465 137.853 31.127 137.425 31.127C137.006 31.127 136.628 31.0402 136.289 30.8667C135.955 30.6932 135.667 30.4499 135.426 30.1367C135.189 29.8236 135.007 29.4554 134.88 29.0322C134.753 28.6048 134.69 28.1414 134.69 27.6421ZM136.219 27.5088V27.6421C136.219 27.9552 136.249 28.2472 136.308 28.5181C136.372 28.7889 136.467 29.028 136.594 29.2354C136.725 29.4385 136.89 29.5993 137.089 29.7178C137.292 29.832 137.531 29.8892 137.806 29.8892C138.166 29.8892 138.46 29.813 138.689 29.6606C138.921 29.5083 139.099 29.3031 139.222 29.0449C139.349 28.7826 139.438 28.4906 139.488 28.1689V27.02C139.463 26.7703 139.41 26.5376 139.33 26.3218C139.253 26.106 139.15 25.9176 139.019 25.7568C138.887 25.5918 138.722 25.4648 138.524 25.376C138.325 25.2829 138.09 25.2363 137.819 25.2363C137.544 25.2363 137.305 25.2956 137.102 25.4141C136.899 25.5326 136.731 25.6955 136.6 25.9028C136.473 26.1102 136.378 26.3514 136.315 26.6265C136.251 26.9015 136.219 27.1956 136.219 27.5088ZM150.844 28.6196C150.844 28.4292 150.814 28.2599 150.755 28.1118C150.7 27.9637 150.601 27.8283 150.457 27.7056C150.313 27.5828 150.11 27.4644 149.847 27.3501C149.589 27.2316 149.259 27.111 148.857 26.9883C148.417 26.8529 148.011 26.7026 147.638 26.5376C147.27 26.3683 146.949 26.1737 146.674 25.9536C146.399 25.7293 146.185 25.4733 146.033 25.1855C145.88 24.8936 145.804 24.5571 145.804 24.1763C145.804 23.7996 145.882 23.4569 146.039 23.1479C146.2 22.839 146.426 22.5724 146.718 22.3481C147.014 22.1196 147.363 21.944 147.765 21.8213C148.167 21.6943 148.612 21.6309 149.098 21.6309C149.784 21.6309 150.374 21.7578 150.869 22.0117C151.369 22.2656 151.752 22.6063 152.018 23.0337C152.289 23.4611 152.425 23.9329 152.425 24.4492H150.844C150.844 24.1445 150.778 23.8758 150.647 23.6431C150.52 23.4061 150.326 23.2199 150.063 23.0845C149.805 22.9491 149.477 22.8813 149.079 22.8813C148.703 22.8813 148.39 22.9385 148.14 23.0527C147.89 23.167 147.704 23.3215 147.581 23.5161C147.459 23.7108 147.397 23.9308 147.397 24.1763C147.397 24.3498 147.437 24.5085 147.518 24.6523C147.598 24.792 147.721 24.9232 147.886 25.0459C148.051 25.1644 148.258 25.2765 148.508 25.3823C148.758 25.4881 149.052 25.5897 149.39 25.687C149.902 25.8394 150.349 26.0086 150.73 26.1948C151.111 26.3768 151.428 26.5841 151.682 26.8169C151.936 27.0496 152.126 27.3141 152.253 27.6104C152.38 27.9023 152.444 28.2345 152.444 28.6069C152.444 28.9963 152.365 29.3475 152.209 29.6606C152.052 29.9696 151.828 30.234 151.536 30.4541C151.248 30.6699 150.901 30.8371 150.495 30.9556C150.093 31.0698 149.644 31.127 149.149 31.127C148.705 31.127 148.267 31.0677 147.835 30.9492C147.408 30.8307 147.019 30.6509 146.667 30.4097C146.316 30.1642 146.037 29.8595 145.829 29.4956C145.622 29.1274 145.518 28.6979 145.518 28.207H147.112C147.112 28.5075 147.162 28.7635 147.264 28.9751C147.37 29.1867 147.516 29.3602 147.702 29.4956C147.888 29.6268 148.104 29.7241 148.349 29.7876C148.599 29.8511 148.866 29.8828 149.149 29.8828C149.522 29.8828 149.833 29.8299 150.082 29.7241C150.336 29.6183 150.527 29.4702 150.654 29.2798C150.781 29.0894 150.844 28.8693 150.844 28.6196ZM155.824 30.251L157.69 24.1318H159.328L156.573 32.0474C156.509 32.2166 156.427 32.4007 156.325 32.5996C156.224 32.7985 156.09 32.9868 155.925 33.1646C155.764 33.3465 155.563 33.4925 155.322 33.6025C155.081 33.7168 154.789 33.7739 154.446 33.7739C154.311 33.7739 154.18 33.7612 154.053 33.7358C153.93 33.7147 153.814 33.6914 153.704 33.666L153.697 32.498C153.74 32.5023 153.79 32.5065 153.85 32.5107C153.913 32.515 153.964 32.5171 154.002 32.5171C154.256 32.5171 154.467 32.4854 154.637 32.4219C154.806 32.3626 154.943 32.2653 155.049 32.1299C155.159 31.9945 155.252 31.8125 155.329 31.584L155.824 30.251ZM154.77 24.1318L156.401 29.2734L156.674 30.8857L155.614 31.1587L153.12 24.1318H154.77ZM164.187 29.1401C164.187 28.9878 164.148 28.8503 164.072 28.7275C163.996 28.6006 163.85 28.4863 163.634 28.3848C163.423 28.2832 163.11 28.1901 162.695 28.1055C162.331 28.0251 161.997 27.9299 161.692 27.8198C161.391 27.7056 161.133 27.568 160.918 27.4072C160.702 27.2464 160.535 27.056 160.416 26.8359C160.298 26.6159 160.238 26.362 160.238 26.0742C160.238 25.7949 160.3 25.5304 160.422 25.2808C160.545 25.0311 160.721 24.811 160.949 24.6206C161.178 24.4302 161.455 24.2799 161.781 24.1699C162.111 24.0599 162.479 24.0049 162.885 24.0049C163.461 24.0049 163.954 24.1022 164.364 24.2969C164.779 24.4873 165.096 24.7476 165.316 25.0776C165.537 25.4035 165.647 25.7716 165.647 26.1821H164.117C164.117 26.0002 164.07 25.8309 163.977 25.6743C163.888 25.5135 163.753 25.3844 163.571 25.2871C163.389 25.1855 163.16 25.1348 162.885 25.1348C162.623 25.1348 162.405 25.1771 162.232 25.2617C162.062 25.3421 161.935 25.4479 161.851 25.5791C161.77 25.7103 161.73 25.8542 161.73 26.0107C161.73 26.125 161.751 26.2287 161.794 26.3218C161.84 26.4106 161.916 26.4932 162.022 26.5693C162.128 26.6413 162.272 26.709 162.454 26.7725C162.64 26.8359 162.873 26.8973 163.152 26.9565C163.677 27.0666 164.127 27.2083 164.504 27.3818C164.885 27.5511 165.177 27.7712 165.38 28.042C165.583 28.3086 165.685 28.6471 165.685 29.0576C165.685 29.3623 165.619 29.6416 165.488 29.8955C165.361 30.1452 165.175 30.3631 164.929 30.5493C164.684 30.7313 164.39 30.873 164.047 30.9746C163.708 31.0762 163.328 31.127 162.904 31.127C162.282 31.127 161.755 31.0169 161.324 30.7969C160.892 30.5726 160.564 30.2869 160.34 29.9399C160.12 29.5887 160.01 29.2248 160.01 28.8481H161.489C161.506 29.1317 161.584 29.3581 161.724 29.5273C161.868 29.6924 162.045 29.813 162.257 29.8892C162.473 29.9611 162.695 29.9971 162.923 29.9971C163.198 29.9971 163.429 29.9611 163.615 29.8892C163.801 29.813 163.943 29.7114 164.041 29.5845C164.138 29.4533 164.187 29.3052 164.187 29.1401ZM170.302 24.1318V25.249H166.43V24.1318H170.302ZM167.548 22.4497H169.077V29.1021C169.077 29.3136 169.107 29.4766 169.166 29.5908C169.23 29.7008 169.316 29.7749 169.426 29.813C169.536 29.8511 169.666 29.8701 169.814 29.8701C169.919 29.8701 170.021 29.8638 170.118 29.8511C170.216 29.8384 170.294 29.8257 170.353 29.813L170.36 30.981C170.233 31.019 170.084 31.0529 169.915 31.0825C169.75 31.1121 169.56 31.127 169.344 31.127C168.993 31.127 168.682 31.0656 168.411 30.9429C168.14 30.8159 167.928 30.6107 167.776 30.3271C167.624 30.0436 167.548 29.667 167.548 29.1973V22.4497ZM174.641 31.127C174.133 31.127 173.674 31.0444 173.263 30.8794C172.857 30.7101 172.51 30.4753 172.222 30.1748C171.939 29.8743 171.721 29.521 171.569 29.1147C171.416 28.7085 171.34 28.2705 171.34 27.8008V27.5469C171.34 27.0094 171.418 26.5228 171.575 26.0869C171.732 25.651 171.95 25.2786 172.229 24.9697C172.508 24.6566 172.838 24.4175 173.219 24.2524C173.6 24.0874 174.012 24.0049 174.457 24.0049C174.948 24.0049 175.377 24.0874 175.745 24.2524C176.114 24.4175 176.418 24.6502 176.659 24.9507C176.905 25.2469 177.087 25.6003 177.205 26.0107C177.328 26.4212 177.389 26.874 177.389 27.3691V28.0229H172.083V26.9248H175.879V26.8042C175.87 26.5291 175.815 26.271 175.714 26.0298C175.616 25.7886 175.466 25.5939 175.263 25.4458C175.06 25.2977 174.789 25.2236 174.45 25.2236C174.197 25.2236 173.97 25.2786 173.771 25.3887C173.577 25.4945 173.414 25.6489 173.283 25.8521C173.151 26.0552 173.05 26.3006 172.978 26.5884C172.91 26.8719 172.876 27.1914 172.876 27.5469V27.8008C172.876 28.1012 172.916 28.3805 172.997 28.6387C173.082 28.8926 173.204 29.1147 173.365 29.3052C173.526 29.4956 173.721 29.6458 173.949 29.7559C174.178 29.8617 174.438 29.9146 174.73 29.9146C175.098 29.9146 175.426 29.8405 175.714 29.6924C176.001 29.5443 176.251 29.3348 176.463 29.064L177.269 29.8447C177.121 30.0605 176.928 30.2679 176.691 30.4668C176.454 30.6615 176.164 30.8201 175.822 30.9429C175.483 31.0656 175.089 31.127 174.641 31.127ZM180.243 25.5283V31H178.713V24.1318H180.154L180.243 25.5283ZM179.995 27.312L179.475 27.3057C179.475 26.8317 179.534 26.3937 179.652 25.9917C179.771 25.5897 179.944 25.2406 180.173 24.9443C180.401 24.6439 180.685 24.4132 181.023 24.2524C181.366 24.0874 181.762 24.0049 182.21 24.0049C182.524 24.0049 182.809 24.0514 183.067 24.1445C183.33 24.2334 183.556 24.3752 183.747 24.5698C183.941 24.7645 184.089 25.0142 184.191 25.3188C184.297 25.6235 184.35 25.9917 184.35 26.4233V31H182.82V26.5566C182.82 26.2223 182.769 25.96 182.667 25.7695C182.57 25.5791 182.428 25.4437 182.242 25.3633C182.06 25.2786 181.842 25.2363 181.588 25.2363C181.301 25.2363 181.055 25.2913 180.852 25.4014C180.653 25.5114 180.49 25.6616 180.363 25.8521C180.236 26.0425 180.143 26.2625 180.084 26.5122C180.025 26.7619 179.995 27.0285 179.995 27.312ZM184.254 26.9058L183.537 27.0645C183.537 26.6497 183.594 26.2583 183.708 25.8901C183.827 25.5177 183.998 25.1919 184.223 24.9126C184.451 24.6291 184.733 24.4069 185.067 24.2461C185.401 24.0853 185.784 24.0049 186.216 24.0049C186.567 24.0049 186.88 24.0535 187.155 24.1509C187.434 24.244 187.671 24.3921 187.866 24.5952C188.061 24.7983 188.209 25.0628 188.31 25.3887C188.412 25.7103 188.463 26.0996 188.463 26.5566V31H186.927V26.5503C186.927 26.2033 186.876 25.9346 186.774 25.7441C186.677 25.5537 186.537 25.4225 186.355 25.3506C186.173 25.2744 185.955 25.2363 185.702 25.2363C185.465 25.2363 185.255 25.2808 185.073 25.3696C184.895 25.4543 184.745 25.5749 184.622 25.7314C184.5 25.8838 184.407 26.0594 184.343 26.2583C184.284 26.4572 184.254 26.673 184.254 26.9058Z" fill="#00013C"/>
<path d="M41.0571 5.20011C40.4571 5.25726 40.0571 5.40011 39.7714 5.14297C39.5143 4.85725 39.4286 4.65726 39.0857 4.65726C38.7428 4.65726 38.4286 4.57154 38.4286 4.57154C38.4286 4.57154 38.5714 4.42868 39.1714 4.17154C39.1714 4.17154 40.5143 4.3144 41.0571 4.37154C41.6 4.45726 41.8 4.5144 41.8 4.5144C41.8 4.5144 41.6571 5.1144 41.0571 5.20011ZM68.3429 27.6859C68.4001 27.343 69.4286 26.9716 69.4286 26.9716C69.4286 26.9716 69.1143 26.0002 68.7715 25.7144C68.4286 25.4573 67.8001 25.6859 67.4001 25.2573C67.0001 24.8573 65.5143 24.1716 65.3143 20.6573C65.1143 17.143 65.2001 17.3144 65.2001 17.3144C65.2001 17.3144 68.8001 15.2287 68.6572 11.0573C68.5143 6.88583 63.4858 7.22869 61.7429 8.45726C60 9.68584 55.7715 11.8858 54.3429 7.97154C53.8857 6.80011 56.0857 6.17154 56.0857 6.17154C56.0857 6.17154 57.2857 6.25726 57.9715 5.62869C58.6286 5.00011 58.2286 4.88583 58.7715 4.65726C59.3143 4.45726 59.8572 4.57154 60.5143 3.9144C61.2 3.22868 61.3715 1.91439 61.3715 1.91439C61.3715 1.91439 60.7715 2.94296 59.9715 2.88582C59.1715 2.82868 57.8857 2.05725 56.9429 2.34297C56 2.62868 55.6572 2.97154 55.2572 3.65726C54.8572 4.34297 54.9143 4.54297 54.4572 4.88583C54 5.22868 51.1143 9.20012 55.8 11.2573C58.8857 12.2287 61.5143 10.0858 62.1715 9.68583C62.8286 9.28583 63.5143 8.85726 64.8001 8.85726C66.0858 8.85726 67.4286 9.74298 67.4858 10.9716C67.5429 12.2001 66.6858 13.8001 64.7429 14.2001C64.3429 14.2001 63.6858 14.4001 63.6858 14.4001C63.6858 14.4001 62.5429 12.8858 57.5715 14.0001C52.6 15.0858 47.5714 15.7716 46.2857 11.8573C45.9429 8.37155 48.5429 12.2287 48.5429 12.2287C48.5429 12.2287 48.4572 8.77155 47.3714 8.77155C46.7429 8.77155 46.0286 8.22869 46.0286 8.22869C46.0286 8.22869 46.1714 7.54297 46.5143 7.54297C46.8572 7.54297 47.7143 8.51441 47.7143 8.51441C47.7143 8.51441 47.9714 5.88583 46.9714 5.25725C46.4286 4.91439 46.1714 4.54297 46.0571 4.28582C46.4286 4.22868 46.8857 4.11439 47.1714 3.82868C47.8286 3.2001 48.1714 2.51439 48.2286 1.77154C48.2857 1.02868 48.0286 1.42867 47.5714 1.71439C47.0857 2.0001 46.2286 2.11439 45.5714 2.11439C44.8857 2.11439 44.1714 1.82867 44.1714 1.82867C44.1714 1.82867 43.7143 2.45725 43.1714 2.60011C42.6286 2.74296 41.3714 2.65725 40.4286 2.60011C39.4857 2.51439 38.9428 2.05725 38.2857 2.25725C37.6 2.45725 37.4 2.94296 36.5428 3.14296C35.6571 3.34296 35.3428 3.14297 34.7143 3.08583C34.1143 3.02868 33.3714 3.02868 33.2285 3.48583C33.0857 3.97154 32.8857 4.57154 33.0857 5.20011C33.2857 5.82869 33.4285 6.02868 34.4285 5.97154C35.4286 5.9144 36.5714 5.97154 37.0571 6.57154C37.5143 7.20012 37.5143 7.88583 37.4 8.28583C37.2571 8.7144 36.4 8.54298 35.9143 8.48584C35.4286 8.42869 34.7714 8.14298 34.5143 8.62869C34.2285 9.11441 33.9714 10.6287 34.9143 10.2858C35.8571 9.94298 38.2857 10.1144 38.6 10.1144H38.9428C38.9428 10.1144 35.5143 12.6573 35.5714 15.8859C35.5714 20.7716 39.8571 23.9144 39.8571 23.9144C39.8571 23.9144 39.1143 21.6573 39.2571 19.6573C39.4 17.6573 40.3428 16.7716 40.3428 16.7716C40.3428 16.7716 39.6 19.0287 40.2857 22.0573C40.9714 25.0859 41.7714 27.543 40.9714 29.4573C40.1714 31.3716 39.5143 32.1145 39.0286 32.1145C38.5714 32.1145 37.8 31.7716 37.4 32.0002C37 32.2002 36.6 32.743 36.6 33.2288C36.6 33.7145 36.4571 34.343 37 34.343C37.5428 34.343 38.8857 34.2859 39.5428 34.2859C40.2286 34.2859 40.8286 34.143 41.2857 33.8002C41.7714 33.4573 41.9429 31.943 41.9429 31.943C41.9429 31.943 42.4857 32.0859 42.4857 32.4287L42.7429 31.543C42.6 31.0573 42.6857 30.8573 43.0857 30.1145C43.4857 29.3716 43.5429 29.3716 44.1714 28.743C44.7714 28.1144 43.7714 28.2573 43.7714 27.5145C43.7714 26.7716 44.0286 26.4859 44.3714 25.7144C44.7143 24.9716 44.3143 25.0859 44.0286 24.8859C43.7714 24.6859 44.2 24.543 44.2286 24.0573C44.3143 23.143 43.2 22.5144 43.2 22.5144C45.5429 22.1144 45.7143 21.2859 45.7143 21.2859C42.7143 20.4859 42.8286 18.0859 42.8286 18.0859C45.8 18.3144 46.6286 16.8573 46.6286 16.8573C45.0286 17.1716 44.2857 15.3716 44.2857 15.3716C44.7429 14.9144 44.5429 13.5716 44.5429 13.5716C43.4857 11.3144 41.2571 12.8858 41.2571 12.8858C41.8571 11.4858 44.2286 11.5716 44.9714 13.0287C45.7143 14.5144 45.1143 15.2287 45.1143 15.2287C45.8571 16.6287 47.6857 16.2859 47.6857 16.2859C46.1714 19.3144 43.7429 18.743 43.7429 18.743C44.5143 20.9144 46.4857 20.543 46.4857 20.543C46.4571 21.6859 46.0571 22.1716 45.6286 22.4001C45.8286 22.543 46.1714 22.6573 46.7429 22.5144C47.1429 22.4002 47.5714 22.2001 48 22.0001C48.9429 21.6001 50 21.1144 51.5429 20.943C53.3143 20.743 54.4857 20.8573 55.5715 21.4573C55.6286 21.2287 55.7715 20.8859 55.6 20.5144C55.4572 20.2287 55.3429 19.943 55.6572 20.0859L55.9143 20.343C55.9143 20.343 56.6 21.2859 56.7715 22.2859L57.0286 22.5144C57.4286 22.8859 57.7429 23.2287 58.0572 23.6002C58.6286 24.2573 59.1715 24.8573 60.0286 25.4002C60.2858 25.543 60.6286 25.743 61.0858 25.9716C62.1715 26.5144 63.8 26.2287 64.6572 26.6573C65.5429 27.0573 66.2572 28.3716 66.6572 29.343C67.0572 30.3145 67.0572 31.1145 66.8001 31.6859C66.5429 32.2287 66.4001 32.5716 66.0572 32.5716C65.7143 32.5716 65.5143 32.2859 64.9715 32.2859C64.4286 32.2859 64.1715 32.5716 63.9715 33.0287C63.7715 33.5145 63.7715 34.4002 64.0286 34.4002C64.2858 34.4002 67.3715 34.1145 67.7715 34.1145C68.1715 34.1145 68.4572 33.6287 68.5143 33.143C68.6001 32.6573 68.5143 32.0573 68.5143 31.7145C68.5143 31.3716 69.1715 31.9145 69.1715 31.9145C69.1715 31.9145 69.3143 31.0287 68.9715 30.0573C68.6858 29.1145 68.2858 28.0287 68.3429 27.6859Z" fill="#001E3C"/>
<path d="M43.6 1.91429C44.0857 1.02858 43.4 0 43.4 0C43.4 0 43.1429 0.971432 41.7143 0.885718V2.68572C41.7429 2.65715 43.1429 2.80001 43.6 1.91429ZM36.3714 7.14287C36.3714 7.14287 35.6572 6.25716 34.6857 6.60002C33.7429 6.94287 33.7714 7.34288 33.3143 7.45716C32.8857 7.57145 32.2 7.5143 32 7.3143C32.2 7.54288 33.1714 8.48573 34.1143 7.88573C35.2 7.20002 35.3429 6.7143 36.3714 7.14287ZM37.6 31.2572C38.1714 31.1715 38.6572 31.5429 38.6572 31.5429C38.6572 31.5429 39.0286 31.4858 39.7429 30.2001C40.4572 28.8858 40.4857 28.1144 40.5143 27.3143C40.5429 26.5143 39.8572 25.0286 39.8572 25.0286C39.1714 24.5715 37.8572 23.0572 37.8572 23.0572C37.6 23.7429 37.4857 23.5715 37.8286 25.2286C38.1429 26.8858 38.8 26.8001 39.0572 28.5144C39.3143 30.2572 37.6 31.2572 37.6 31.2572ZM36.6 31.9144C36.6 31.9144 33.6857 32.0572 33.6857 34.2001C33.6857 34.2001 34.4571 34.3144 35.9429 34.3144C35.9143 34.2858 35.1143 32.9715 36.6 31.9144ZM57.5429 24.2858C57.2286 23.9429 56.9143 23.6001 56.5429 23.2572C55.0858 21.8858 54 21.5715 51.6572 21.8572C50.2 22 49.2 22.4572 48.3143 22.8572C47.8572 23.0572 47.4 23.2572 46.9429 23.4001C45.8572 23.7143 45.3715 23.0001 45.1143 22.6286H44.8286C44.8286 22.6286 44.2572 22.8858 44.5143 23.1429C44.8 23.4286 45.7429 24.6858 47.9715 24.4001C49.2572 24.2286 53.9143 23.5143 53.9143 23.5143C53.9143 23.5143 51.8286 24.2858 52.6858 26.6001C52.9429 27.3143 54.4 28.0001 54.9715 28.8286C55.5429 29.6572 55.4286 30.7715 55.0858 31.2572C54.7429 31.7429 53.7429 32.0572 53.7429 32.0572C53.7429 32.0572 52.4 31.4572 51.4572 32.5715C50.5143 33.6572 51.0572 34.2858 51.4572 34.2858C51.8572 34.2858 54.4001 34.2287 54.9429 34.2287C55.4858 34.2287 55.8286 33.9429 56.0858 33.6001C56.3429 33.2572 56.4858 32.0286 56.4858 32.0286C56.4858 32.0286 57.2286 32.3715 57.2286 32.7715C57.4286 32.1429 57.2858 31.9429 57.2286 31.3429C57.1715 30.7144 57.3715 30.1144 57.7143 29.7715C58.0572 29.4286 58.7143 29.3715 58.9143 28.9429C59.1143 28.5144 58.7715 28.6001 58.5715 28.4572C58.3715 28.3144 57.9143 27.9143 58.1143 27.5715C58.3143 27.2286 59.0572 26.9715 59.1429 26.4858C59.1715 26.2858 59.2286 26.2572 59.2858 26.0001C58.5715 25.4286 58.0572 24.8572 57.5429 24.2858Z" fill="#001E3C"/>
<line x1="28.5" y1="2" x2="28.5" y2="35" stroke="#001E3C" stroke-opacity="0.5"/>
</svg>
