<svg width="24" height="33" viewBox="0 0 24 33" fill="none" xmlns="http://www.w3.org/2000/svg">
<path d="M15.6406 6.62733C15.6406 6.99846 15.3401 7.2989 14.969 7.2989H9.36664C8.99551 7.2989 8.69507 6.99846 8.69507 6.62733V1.02497C8.69507 0.653835 8.99551 0.353394 9.36664 0.353394H14.969C15.3401 0.353394 15.6406 0.653835 15.6406 1.02497V6.62733Z" fill="#32A041"/>
<path d="M24 6.62733C24 6.99846 23.6995 7.2989 23.3284 7.2989H17.726C17.3549 7.2989 17.0544 6.99846 17.0544 6.62733V1.02497C17.0544 0.653835 17.3549 0.353394 17.726 0.353394H23.3284C23.6995 0.353394 24 0.653835 24 1.02497V6.62733Z" fill="#32A041"/>
<path d="M24 23.3284C24 23.6995 23.6995 24 23.3284 24H17.726C17.3549 24 17.0544 23.6995 17.0544 23.3284V17.726C17.0544 17.3549 17.3549 17.0544 17.726 17.0544H23.3284C23.6995 17.0544 24 17.3549 24 17.726V23.3284Z" fill="#32A041"/>
<path d="M7.29902 14.969C7.29902 15.3401 6.99858 15.6406 6.62745 15.6406H1.02509C0.653957 15.6406 0.353516 15.3401 0.353516 14.969V9.36664C0.353516 8.99551 0.653957 8.69507 1.02509 8.69507H6.62745C6.99858 8.69507 7.29902 8.99551 7.29902 9.36664V14.969Z" fill="#32A041"/>
<path d="M15.6406 14.969C15.6406 15.3401 15.3401 15.6406 14.969 15.6406H9.36664C8.99551 15.6406 8.69507 15.3401 8.69507 14.969V9.36664C8.69507 8.99551 8.99551 8.69507 9.36664 8.69507H14.969C15.3401 8.69507 15.6406 8.99551 15.6406 9.36664V14.969Z" fill="#32A041"/>
<path d="M7.29902 23.3284C7.29902 23.6995 6.99858 24 6.62745 24H1.02509C0.653957 24 0.353516 23.6995 0.353516 23.3284V17.726C0.353516 17.3549 0.653957 17.0544 1.02509 17.0544H6.62745C6.99858 17.0544 7.29902 17.3549 7.29902 17.726V23.3284Z" fill="#32A041"/>
<path d="M15.6406 23.3284C15.6406 23.6995 15.3401 24 14.969 24H9.36664C8.99551 24 8.69507 23.6995 8.69507 23.3284V17.726C8.69507 17.3549 8.99551 17.0544 9.36664 17.0544H14.969C15.3401 17.0544 15.6406 17.3549 15.6406 17.726V23.3284Z" fill="#32A041"/>
<path d="M7.29902 31.6876C7.29902 32.0588 6.99858 32.3592 6.62745 32.3592H1.02509C0.653957 32.3592 0.353516 32.0588 0.353516 31.6876V26.0853C0.353516 25.7141 0.653957 25.4137 1.02509 25.4137H6.62745C6.99858 25.4137 7.29902 25.7141 7.29902 26.0853V31.6876Z" fill="#32A041"/>
<path d="M15.6406 31.6876C15.6406 32.0588 15.3401 32.3592 14.969 32.3592H9.36664C8.99551 32.3592 8.69507 32.0588 8.69507 31.6876V26.0853C8.69507 25.7141 8.99551 25.4137 9.36664 25.4137H14.969C15.3401 25.4137 15.6406 25.7141 15.6406 26.0853V31.6876Z" fill="#32A041"/>
<path d="M7.65243 3.83505C7.65243 5.95582 5.93814 7.6701 3.81738 7.6701C1.69661 7.6701 0 5.95582 0 3.83505C0 1.71429 1.71429 0 3.81738 0C5.93814 0 7.65243 1.71429 7.65243 3.83505Z" fill="#C8191E"/>
</svg>
